<?xml version="1.0" encoding="UTF-8"?>
<svg id="Layer_1" data-name="Layer 1" xmlns="http://www.w3.org/2000/svg" version="1.1" viewBox="0 0 1015.5 335.7">
  <defs>
    <style>
      .cls-1 {
        fill: #a8ef54;
      }

      .cls-1, .cls-2, .cls-3 {
        stroke-width: 0px;
      }

      .cls-2, .cls-4 {
        fill: #000;
      }

      .cls-4 {
        stroke: #a8ef54;
        stroke-miterlimit: 10;
        stroke-width: 14.7px;
      }

      .cls-3 {
        fill: #fff;
      }
    </style>
  </defs>
  <rect class="cls-2" x="-187.8" y="-2566.5" width="2000" height="974.4"/>
  <rect class="cls-2" x="4563.3" y="-2003.8" width="2039.8" height="586.1"/>
  <g>
    <path class="cls-2" d="M-748.4-731.3c-49.3,0-91.1-17.7-125.4-53-34.3-35.3-51.5-78.6-51.5-129.9s18.2-98.2,54.7-135.2c36.5-37,81-55.5,133.6-55.5s95.9,17.9,130,53.6c34.1,35.8,51.2,81.8,51.2,138.2v173.3h-108v-169.8c0-27-6.9-48.4-20.6-64.3-13.7-15.9-32.2-23.8-55.4-23.8s-39.3,7.4-54,22.1c-14.7,14.8-22,33.1-22,54.9s8,41.3,24.2,56.7c16.1,15.5,36.2,23.2,60.4,23.2s23.4-3.3,39.1-9.9v109.3c-22.3,6.7-41,10-56.1,10Z"/>
    <path class="cls-2" d="M-451.8-1271.9c18,0,33.5,6.3,46.7,19,13.1,12.6,19.7,28.2,19.7,46.7s-6.3,34.8-19,47.4c-12.6,12.6-28.4,19-47.4,19s-33.5-6.3-46.7-19c-13.1-12.6-19.7-28.2-19.7-46.7s6.3-34.8,19-47.4c12.6-12.6,28.4-19,47.4-19ZM-395.7-1105v365.3h-111.6v-365.3h111.6Z"/>
    <path class="cls-2" d="M-1918.5-1268.7v525.7h-111.6v-525.7h111.6Z"/>
    <path class="cls-2" d="M-1682.2-944.5c0-46.6,16.8-85.5,50.3-116.8,33.5-31.3,74.6-46.9,123.2-46.9s90.9,15.4,124,46.2c33.1,30.8,49.6,70,49.6,117.5v201.6h-110.8v-197.6c0-17.5-5.8-32.3-17.5-44.5-11.7-12.1-26.5-18.2-44.5-18.2s-32.3,5.8-44.5,17.5c-12.2,11.7-18.2,26.7-18.2,45.2v197.6h-111.6v-201.6Z"/>
    <path class="cls-2" d="M-1383.3-998.5h89.8c26.4-.6,48.5-6.7,66.7-20.1,18.2-13.4,27.3-29.8,27.3-49.2l1.8-86.6h110.1l-1.8,104.1c0,43.8-22.9,76.6-68.5,98.4,45.7,21.9,68.5,58.8,68.5,110.8l1.8,98.1h-110.1l-1.8-86.4c0-21.9-8.3-39.3-24.8-52.1-16.5-12.9-39.6-18.5-69.3-19.3h-89.8"/>
    <path class="cls-2" d="M-1800.7-1275.2c18,0,33.5,6.3,46.7,19,13.1,12.6,19.7,28.2,19.7,46.7s-6.3,34.8-19,47.4c-12.6,12.6-28.4,19-47.4,19s-33.5-6.3-46.7-19c-13.1-12.6-19.7-28.2-19.7-46.7s6.3-34.8,19-47.4c12.6-12.6,28.4-19,47.4-19ZM-1744.6-1108.2v365.3h-111.6v-365.3h111.6Z"/>
    <path class="cls-1" d="M-1015-1014.6c18,0,33.5,6.3,46.7,19,13.1,12.6,19.7,28.2,19.7,46.7s-6.3,34.8-19,47.4-28.4,19-47.4,19-33.5-6.3-46.7-19c-13.1-12.6-19.7-28.2-19.7-46.7s6.3-34.8,19-47.4c12.6-12.6,28.4-19,47.4-19Z"/>
  </g>
  <g>
    <path class="cls-3" d="M1276.9-1818.2c-49.3,0-91.1-17.7-125.4-53-34.3-35.3-51.5-78.6-51.5-129.9s18.2-98.2,54.7-135.2c36.5-37,81-55.5,133.6-55.5s95.9,17.9,130,53.6c34.1,35.8,51.2,81.8,51.2,138.2v173.3h-108v-169.8c0-27-6.9-48.4-20.6-64.3-13.7-15.9-32.2-23.8-55.4-23.8s-39.3,7.4-54,22.1c-14.7,14.8-22,33.1-22,54.9s8,41.3,24.2,56.7c16.1,15.5,36.2,23.2,60.4,23.2s23.4-3.3,39.1-9.9v109.3c-22.3,6.7-41,10-56.1,10Z"/>
    <path class="cls-3" d="M1573.5-2358.9c18,0,33.5,6.3,46.7,19,13.1,12.6,19.7,28.2,19.7,46.7s-6.3,34.8-19,47.4c-12.6,12.6-28.4,19-47.4,19s-33.5-6.3-46.7-19c-13.1-12.6-19.7-28.2-19.7-46.7s6.3-34.8,19-47.4c12.6-12.6,28.4-19,47.4-19ZM1629.7-2191.9v365.3h-111.6v-365.3h111.6Z"/>
    <path class="cls-3" d="M106.9-2355.6v525.7H-4.7v-525.7h111.6Z"/>
    <path class="cls-3" d="M343.2-2031.4c0-46.6,16.8-85.5,50.3-116.8,33.5-31.3,74.6-46.9,123.2-46.9s90.9,15.4,124,46.2c33.1,30.8,49.6,70,49.6,117.5v201.6h-110.8v-197.6c0-17.5-5.8-32.3-17.5-44.5-11.7-12.1-26.5-18.2-44.5-18.2s-32.3,5.8-44.5,17.5c-12.2,11.7-18.2,26.7-18.2,45.2v197.6h-111.6v-201.6Z"/>
    <path class="cls-3" d="M642.1-2084.3l89.8-1.1c26.3,0,48.5-6.7,66.7-20.1,18.2-13.4,27.3-29.8,27.3-49.2l1.8-86.6h110.1l-1.8,104.1c0,43.8-22.9,76.6-68.5,98.4,45.7,21.9,68.5,58.8,68.5,110.8l1.8,98.1h-110.1l-1.8-86.4c0-21.9-8.3-39.3-24.8-52.1-16.5-12.9-39.6-19.3-69.3-19.3l-89.8,1.1"/>
    <path class="cls-3" d="M224.7-2362.1c18,0,33.5,6.3,46.7,19,13.1,12.6,19.7,28.2,19.7,46.7s-6.3,34.8-19,47.4-28.4,19-47.4,19-33.5-6.3-46.7-19c-13.1-12.6-19.7-28.2-19.7-46.7s6.3-34.8,19-47.4c12.6-12.6,28.4-19,47.4-19ZM280.8-2195.2v365.3h-111.6v-365.3h111.6Z"/>
    <path class="cls-1" d="M1010.3-2101.5c18,0,33.5,6.3,46.7,19,13.1,12.6,19.7,28.2,19.7,46.7s-6.3,34.8-19,47.4-28.4,19-47.4,19-33.5-6.3-46.7-19c-13.1-12.6-19.7-28.2-19.7-46.7s6.3-34.8,19-47.4,28.4-19,47.4-19Z"/>
  </g>
  <g>
    <path class="cls-2" d="M791,335.7c-30.4,0-56.2-10.9-77.4-32.7-21.2-21.8-31.8-48.5-31.8-80.2s11.2-60.6,33.8-83.5c22.5-22.8,50-34.3,82.4-34.3s59.2,11,80.2,33.1c21,22.1,31.6,50.5,31.6,85.3v107h-66.6v-104.8c0-16.7-4.2-29.9-12.7-39.7-8.5-9.8-19.9-14.7-34.2-14.7s-24.3,4.6-33.3,13.7c-9.1,9.1-13.6,20.4-13.6,33.9s5,25.5,14.9,35c9.9,9.5,22.4,14.3,37.3,14.3s14.5-2,24.1-6.1v67.5c-13.7,4.1-25.3,6.2-34.6,6.2Z"/>
    <path class="cls-2" d="M974.1,2c11.1,0,20.7,3.9,28.8,11.7,8.1,7.8,12.2,17.4,12.2,28.8s-3.9,21.5-11.7,29.3c-7.8,7.8-17.6,11.7-29.3,11.7s-20.7-3.9-28.8-11.7c-8.1-7.8-12.2-17.4-12.2-28.8s3.9-21.4,11.7-29.3c7.8-7.8,17.6-11.7,29.3-11.7ZM1008.7,105.1v225.5h-68.9V105.1h68.9Z"/>
    <path class="cls-2" d="M68.9,4.1v324.5H0V4.1h68.9Z"/>
    <path class="cls-2" d="M214.7,204.1c0-28.7,10.4-52.8,31.1-72.1,20.7-19.3,46.1-29,76.1-29s56.1,9.5,76.5,28.5c20.4,19,30.6,43.2,30.6,72.5v124.4h-68.4v-122c0-10.8-3.6-19.9-10.8-27.5-7.2-7.5-16.4-11.3-27.5-11.3s-20,3.6-27.5,10.8c-7.5,7.2-11.3,16.5-11.3,27.9v122h-68.9v-124.4Z"/>
    <path class="cls-2" d="M399.2,170.8h55.4c16.3-.4,29.9-4.1,41.2-12.4,11.3-8.2,16.9-18.4,16.9-30.4l1.1-53.4h68l-1.1,64.2c0,27-14.1,47.3-42.3,60.8,28.2,13.5,42.3,36.3,42.3,68.4l1.1,60.5h-68l-1.1-53.3c0-13.5-5.1-24.2-15.3-32.2-10.2-7.9-24.4-11.4-42.8-11.9h-55.4"/>
    <path class="cls-2" d="M141.6,0c11.1,0,20.7,3.9,28.8,11.7,8.1,7.8,12.2,17.4,12.2,28.8s-3.9,21.5-11.7,29.3c-7.8,7.8-17.6,11.7-29.3,11.7s-20.7-3.9-28.8-11.7c-8.1-7.8-12.2-17.4-12.2-28.8s3.9-21.4,11.7-29.3S129.8,0,141.6,0ZM176.2,103.1v225.5h-68.9V103.1h68.9Z"/>
    <path class="cls-1" d="M626.5,160.8c11.1,0,20.7,3.9,28.8,11.7,8.1,7.8,12.2,17.4,12.2,28.8s-3.9,21.5-11.7,29.3c-7.8,7.8-17.6,11.7-29.3,11.7s-20.7-3.9-28.8-11.7c-8.1-7.8-12.2-17.4-12.2-28.8s3.9-21.4,11.7-29.3c7.8-7.8,17.6-11.7,29.3-11.7Z"/>
  </g>
  <g>
    <path class="cls-3" d="M6388.6-1603.7c-10.1,0-18.6-3.6-25.6-10.8-7-7.2-10.5-16.1-10.5-26.6s3.7-20.1,11.2-27.7c7.5-7.6,16.6-11.4,27.3-11.4s19.6,3.7,26.6,11c7,7.3,10.5,16.7,10.5,28.3v35.4h-22.1v-34.7c0-5.5-1.4-9.9-4.2-13.1-2.8-3.2-6.6-4.9-11.3-4.9s-8,1.5-11,4.5c-3,3-4.5,6.8-4.5,11.2s1.6,8.4,4.9,11.6c3.3,3.2,7.4,4.7,12.3,4.7s4.8-.7,8-2v22.4c-4.6,1.4-8.4,2-11.5,2Z"/>
    <path class="cls-3" d="M6449.3-1714.2c3.7,0,6.9,1.3,9.5,3.9,2.7,2.6,4,5.8,4,9.5s-1.3,7.1-3.9,9.7-5.8,3.9-9.7,3.9-6.9-1.3-9.5-3.9c-2.7-2.6-4-5.8-4-9.5s1.3-7.1,3.9-9.7,5.8-3.9,9.7-3.9ZM6460.8-1680.1v74.7h-22.8v-74.7h22.8Z"/>
    <path class="cls-3" d="M6149.4-1713.5v107.5h-22.8v-107.5h22.8Z"/>
    <path class="cls-3" d="M6197.7-1647.3c0-9.5,3.4-17.5,10.3-23.9,6.9-6.4,15.3-9.6,25.2-9.6s18.6,3.1,25.3,9.4c6.8,6.3,10.1,14.3,10.1,24v41.2h-22.7v-40.4c0-3.6-1.2-6.6-3.6-9.1-2.4-2.5-5.4-3.7-9.1-3.7s-6.6,1.2-9.1,3.6c-2.5,2.4-3.7,5.5-3.7,9.2v40.4h-22.8v-41.2Z"/>
    <path class="cls-3" d="M6258.8-1658.1l18.4-.2c5.4,0,9.9-1.4,13.6-4.1,3.7-2.7,5.6-6.1,5.6-10.1l.4-17.7h22.5l-.4,21.3c0,8.9-4.7,15.7-14,20.1,9.3,4.5,14,12,14,22.7l.4,20.1h-22.5l-.4-17.7c0-4.5-1.7-8-5.1-10.7-3.4-2.6-8.1-4-14.2-4l-18.4.2"/>
    <path class="cls-3" d="M6173.5-1714.9c3.7,0,6.9,1.3,9.5,3.9,2.7,2.6,4,5.8,4,9.5s-1.3,7.1-3.9,9.7-5.8,3.9-9.7,3.9-6.9-1.3-9.5-3.9c-2.7-2.6-4-5.8-4-9.5s1.3-7.1,3.9-9.7,5.8-3.9,9.7-3.9ZM6185-1680.7v74.7h-22.8v-74.7h22.8Z"/>
    <path class="cls-1" d="M6334.1-1661.6c3.7,0,6.9,1.3,9.5,3.9,2.7,2.6,4,5.8,4,9.5s-1.3,7.1-3.9,9.7-5.8,3.9-9.7,3.9-6.9-1.3-9.5-3.9c-2.7-2.6-4-5.8-4-9.5s1.3-7.1,3.9-9.7,5.8-3.9,9.7-3.9Z"/>
  </g>
  <g>
    <path class="cls-3" d="M5993.6-1650.9l4.9,36.8c.3,2.1,1.1,3.2,2.4,3.2s1.1-.2,1.6-.7c.3-.4.5-1.3.8-2.7l5.1-36.6h11.8l-6,39.5c-.4,3.2-1.8,5.7-4.1,7.5-2.3,1.7-5.3,2.6-9.1,2.6s-6.8-.9-9.1-2.6-3.8-4.3-4.3-7.6l-5.7-39.4h11.8Z"/>
    <path class="cls-3" d="M6037.8-1601.3c-4.7,0-8.7-1.7-11.9-5-3.3-3.4-4.9-7.5-4.9-12.4s1.7-9.3,5.2-12.9c3.5-3.5,7.7-5.3,12.7-5.3s9.1,1.7,12.4,5.1c3.2,3.4,4.9,7.8,4.9,13.2v16.5h-10.3v-16.2c0-2.6-.7-4.6-2-6.1-1.3-1.5-3.1-2.3-5.3-2.3s-3.7.7-5.1,2.1c-1.4,1.4-2.1,3.1-2.1,5.2s.8,3.9,2.3,5.4c1.5,1.5,3.4,2.2,5.7,2.2s2.2-.3,3.7-.9v10.4c-2.1.6-3.9,1-5.3,1Z"/>
    <path class="cls-3" d="M6060.2-1621.4c0-4.3,1.6-7.9,4.7-10.8,3.1-2.9,6.9-4.4,11.4-4.4s8.4,1.4,11.5,4.3c3.1,2.9,4.6,6.5,4.6,10.9v19.3h-10.3v-18.9c0-1.6-.5-3-1.6-4.1-1.1-1.1-2.5-1.7-4.1-1.7s-3,.5-4.1,1.6-1.7,2.5-1.7,4.2v18.9h-10.3v-19.3Z"/>
  </g>
  <path class="cls-3" d="M4749.1-2477.3v310h-65.8v-310h65.8Z"/>
  <path class="cls-3" d="M4888.4-2286.1c0-27.5,9.9-50.4,29.7-68.9,19.8-18.5,44-27.7,72.7-27.7s53.6,9.1,73.1,27.3c19.5,18.2,29.2,41.3,29.2,69.3v118.9h-65.4v-116.5c0-10.3-3.4-19.1-10.3-26.2-6.9-7.2-15.6-10.8-26.2-10.8s-19.1,3.4-26.2,10.3c-7.2,6.9-10.8,15.8-10.8,26.7v116.5h-65.8v-118.9Z"/>
  <path class="cls-3" d="M5064.7-2317.4l52.9-.6c15.5,0,28.6-3.9,39.3-11.8,10.8-7.9,16.1-17.6,16.1-29l1.1-51.1h64.9l-1.1,61.4c0,25.8-13.5,45.2-40.4,58.1,26.9,12.9,40.4,34.7,40.4,65.4l1.1,57.8h-64.9l-1.1-51c0-12.9-4.9-23.1-14.6-30.7-9.7-7.6-23.4-11.4-40.9-11.4l-52.9.6"/>
  <path class="cls-3" d="M4818.5-2481.2c10.6,0,19.8,3.7,27.5,11.2,7.7,7.5,11.6,16.6,11.6,27.5s-3.7,20.5-11.2,28c-7.5,7.5-16.8,11.2-28,11.2s-19.8-3.7-27.5-11.2c-7.7-7.5-11.6-16.6-11.6-27.5s3.7-20.5,11.2-28c7.5-7.5,16.8-11.2,28-11.2ZM4851.7-2382.7v215.4h-65.8v-215.4h65.8Z"/>
  <path class="cls-3" d="M5404.8-2322.2c-9.4-2.8-17-4.3-22.6-4.3-15.4,0-27.8,4.3-37.2,12.8-9.4,8.5-14.1,20.1-14.1,34.6s4.3,23.5,12.8,32.9c8.5,8.5,19.4,12.8,32.5,12.8s23.7-4.6,32.7-13.9c9-9.3,13.5-20.7,13.5-34.4v-199.5h65.4v202.1c0,32.5-10.4,59.1-31.2,79.9-20.8,20.8-47.4,31.2-79.9,31.2s-59.1-10.4-79.9-31.1c-20.8-20.7-31.2-47.2-31.2-79.6s10.3-57.8,30.8-79c20.5-21.1,46.4-31.7,77.8-31.7h15c2.6,0,5.1.4,7.7,1.1,2.6.7,5.3,1.5,8.1,2.3v63.7Z"/>
  <path class="cls-1" d="M5549.8-2304.4c12.1,2.9,20.5,6.9,25.1,12,4.6,5.1,6.9,12.4,6.9,21.8s-3,17-8.9,23.3c-5.9,6.3-13.6,9.4-23.1,9.4s-18.5-4-25.1-12c-6.5-8-9.8-18.2-9.8-30.5,0-22.5,11.6-42.1,34.9-58.9v34.9Z"/>
  <g>
    <path class="cls-3" d="M5811-2259.8c0,26.3-9.5,48.5-28.6,66.5-19.1,18-42.5,27-70.1,27s-51.7-8.8-70.5-26.4c-18.8-17.6-28.2-40-28.2-67.1v-119.3h63.5v116.8c0,11.1,3.2,20,9.5,26.5,6.4,6.5,14.9,9.8,25.7,9.8s18.4-3.3,25.3-10c6.9-6.7,10.4-15.4,10.4-26.3v-116.8h63.1v119.3Z"/>
    <path class="cls-3" d="M5835.9-2281.5c0-28,10.6-52.3,31.7-72.9,21.2-20.6,46.8-31,77-31s55.5,10.4,76.1,31.3c20.6,20.9,30.9,46.7,30.9,77.4s-10.1,56.8-30.3,77.6c-20.2,20.7-45.5,31.1-75.9,31.1s-17.3-1.7-30.3-5v-61l11.2,2.5,9.5.4c16.6,0,29.4-3.9,38.4-11.8,9-7.9,13.5-19,13.5-33.4s-4.2-23.4-12.7-32.2c-8.4-8.7-18.9-13.1-31.3-13.1s-23,4.3-31.5,12.9c-8.6,8.6-12.9,19-12.9,31.2v194.5h-63.5v-198.6Z"/>
  </g>
  <rect class="cls-2" x="-187.8" y="-1515" width="2000" height="1305.7"/>
  <g>
    <path class="cls-3" d="M4765.2-1848.2v243.8h-51.7v-243.8h51.7Z"/>
    <path class="cls-3" d="M4874.7-1697.9c0-21.6,7.8-39.7,23.3-54.2,15.6-14.5,34.6-21.8,57.2-21.8s42.2,7.1,57.5,21.4c15.3,14.3,23,32.5,23,54.5v93.5h-51.4v-91.7c0-8.1-2.7-15-8.1-20.6-5.4-5.6-12.3-8.5-20.6-8.5s-15,2.7-20.6,8.1c-5.6,5.4-8.5,12.4-8.5,21v91.7h-51.7v-93.5Z"/>
    <path class="cls-3" d="M5013.4-1722.4l41.6-.5c12.2,0,22.5-3.1,30.9-9.3,8.5-6.2,12.7-13.8,12.7-22.8l.8-40.2h51.1l-.8,48.3c0,20.3-10.6,35.5-31.8,45.7,21.2,10.1,31.8,27.3,31.8,51.4l.8,45.5h-51.1l-.8-40.1c0-10.1-3.8-18.2-11.5-24.2-7.7-6-18.4-9-32.1-9l-41.6.5"/>
    <path class="cls-3" d="M4819.8-1851.3c8.3,0,15.6,2.9,21.6,8.8,6.1,5.9,9.1,13.1,9.1,21.6s-2.9,16.1-8.8,22c-5.9,5.9-13.2,8.8-22,8.8s-15.6-2.9-21.6-8.8c-6.1-5.9-9.1-13.1-9.1-21.6s2.9-16.1,8.8-22c5.9-5.9,13.2-8.8,22-8.8ZM4845.8-1773.8v169.4h-51.7v-169.4h51.7Z"/>
    <path class="cls-3" d="M5280.9-1726.3c-7.4-2.2-13.3-3.4-17.8-3.4-12.1,0-21.8,3.4-29.2,10.1-7.4,6.7-11.1,15.8-11.1,27.2s3.4,18.5,10.1,25.9c6.7,6.7,15.2,10.1,25.5,10.1s18.7-3.6,25.7-10.9c7.1-7.3,10.6-16.3,10.6-27.1v-156.9h51.4v158.9c0,25.5-8.2,46.5-24.5,62.8-16.4,16.4-37.3,24.5-62.8,24.5s-46.5-8.1-62.8-24.4c-16.4-16.3-24.5-37.2-24.5-62.6s8.1-45.5,24.2-62.1c16.1-16.6,36.5-24.9,61.2-24.9h11.8c2,0,4,.3,6,.8,2,.6,4.1,1.2,6.4,1.8v50.1Z"/>
    <path class="cls-1" d="M5394.9-1712.2c9.5,2.3,16.1,5.4,19.7,9.4,3.6,4,5.4,9.7,5.4,17.1s-2.3,13.3-7,18.3c-4.7,5-10.7,7.4-18.1,7.4s-14.6-3.1-19.7-9.4c-5.1-6.3-7.7-14.3-7.7-24,0-17.7,9.1-33.1,27.4-46.3v27.4Z"/>
    <g>
      <path class="cls-3" d="M5600.3-1677.2c0,20.7-7.5,38.1-22.5,52.3-15,14.2-33.4,21.3-55.1,21.3s-40.7-6.9-55.5-20.8c-14.8-13.8-22.2-31.4-22.2-52.8v-93.8h49.9v91.9c0,8.7,2.5,15.7,7.5,20.8,5,5.1,11.7,7.7,20.2,7.7s14.5-2.6,19.9-7.9c5.4-5.3,8.2-12.1,8.2-20.7v-91.9h49.6v93.8Z"/>
      <path class="cls-3" d="M5619.9-1694.2c0-22,8.3-41.1,25-57.3,16.6-16.2,36.8-24.3,60.5-24.3s43.7,8.2,59.9,24.6c16.2,16.4,24.3,36.7,24.3,60.9s-7.9,44.7-23.8,61c-15.9,16.3-35.8,24.5-59.7,24.5s-13.6-1.3-23.8-3.9v-48l8.8,2,7.5.3c13.1,0,23.1-3.1,30.2-9.3,7.1-6.2,10.6-15,10.6-26.3s-3.3-18.4-10-25.3c-6.6-6.9-14.8-10.3-24.6-10.3s-18.1,3.4-24.8,10.1c-6.7,6.8-10.1,14.9-10.1,24.5v153h-49.9v-156.2Z"/>
    </g>
  </g>
  <rect class="cls-4" x="4570.7" y="-1330.9" width="788.1" height="236.2"/>
  <g>
    <path class="cls-3" d="M4722.3-1177c-5.8,0-10.7-2.1-14.7-6.2-4-4.1-6-9-6-14.7v-61.3h19.7v58.7c0,2.1.6,3.8,1.9,5.1,1.3,1.3,3,1.9,5.2,1.9h12.2v16.4h-18.4Z"/>
    <path class="cls-3" d="M4768.8-1195.4l-6.5-8.5,17.7-12.8c-2.3-2-4.9-3-7.8-3s-7.1,1.4-9.9,4.2c-2.8,2.8-4.2,6.1-4.2,9.8s1.3,6.7,3.8,9.4c2.5,2.6,5.7,4,9.4,4s8.4-2.2,12.3-6.7l13.8,7.6c-1.7,2.7-3.1,4.7-4.3,6-1.2,1.3-3.5,3.3-7,5.7-3.4,2.5-8.3,3.7-14.7,3.7s-15.1-2.8-20.8-8.5c-5.7-5.7-8.5-12.7-8.5-20.9s2.9-15.5,8.6-21.2c5.7-5.7,12.9-8.5,21.5-8.5s11,1.2,14.4,3.5c3.5,2.3,6,4.5,7.6,6.6,1.3,1.7,2.8,4.5,4.6,8.3l-29.9,21.4Z"/>
    <path class="cls-3" d="M4829-1195.4l-6.5-8.5,17.7-12.8c-2.3-2-4.9-3-7.8-3s-7.1,1.4-9.9,4.2c-2.8,2.8-4.2,6.1-4.2,9.8s1.3,6.7,3.8,9.4c2.5,2.6,5.7,4,9.4,4s8.4-2.2,12.3-6.7l13.8,7.6c-1.7,2.7-3.1,4.7-4.3,6-1.2,1.3-3.5,3.3-7,5.7-3.4,2.5-8.3,3.7-14.7,3.7s-15.1-2.8-20.8-8.5c-5.7-5.7-8.5-12.7-8.5-20.9s2.9-15.5,8.6-21.2c5.7-5.7,12.9-8.5,21.5-8.5s11,1.2,14.4,3.5c3.5,2.3,6,4.5,7.6,6.6,1.3,1.7,2.8,4.5,4.6,8.3l-29.9,21.4Z"/>
    <path class="cls-3" d="M4889.3-1220l-2.4-.5-1.8.5c-.6.2-1.3.7-2.1,1.3-.8.6-1.1,1.4-1.1,2.2s.1,1.4.4,2.1l7,16.1c1.1,1.8,1.6,3.8,1.6,6.1,0,4.9-1.9,8.9-5.8,11.9s-8.9,4.6-15.2,4.6h-3.4l-2.4-.7.2-15,2.2.6c1.4,0,2.6-.4,3.6-1.1,1-.7,1.5-1.6,1.5-2.7s-.2-1.6-.5-2.3l-7.2-16-1.1-3.1-.2-3.1c0-4.9,1.8-8.8,5.3-11.7,3.6-2.9,8.2-4.4,14.1-4.4h4.3c1.4.2,2.3.4,3,.5v14.7Z"/>
    <path class="cls-3" d="M4942.3-1234.1l5.7,36.4c.7,4,2.3,6,4.9,6s4.1-2,4.9-6l5.7-36.4h17.7l-7.3,40.9c-.8,4.9-3.1,9.1-7.1,12.4-4,3.3-8.6,5-13.9,5s-9.7-1.7-13.7-5c-4-3.3-6.4-7.4-7.3-12.4l-7.3-40.9h17.7Z"/>
    <path class="cls-3" d="M5009.6-1195.4l-6.5-8.5,17.7-12.8c-2.3-2-4.9-3-7.8-3s-7.1,1.4-9.9,4.2c-2.8,2.8-4.2,6.1-4.2,9.8s1.3,6.7,3.8,9.4c2.5,2.6,5.7,4,9.4,4s8.4-2.2,12.3-6.7l13.8,7.6c-1.7,2.7-3.1,4.7-4.3,6-1.2,1.3-3.5,3.3-7,5.7-3.4,2.5-8.3,3.7-14.7,3.7s-15.1-2.8-20.8-8.5c-5.7-5.7-8.5-12.7-8.5-20.9s2.9-15.5,8.6-21.2c5.7-5.7,12.9-8.5,21.5-8.5s11,1.2,14.4,3.5c3.5,2.3,6,4.5,7.6,6.6,1.3,1.7,2.8,4.5,4.6,8.3l-29.9,21.4Z"/>
    <path class="cls-3" d="M5044.4-1212.6c0-6.5,2.2-11.8,6.7-16.1,4.5-4.3,10.1-6.4,17-6.4h1.5l2.7.3v16.6h-1.4c-2.7-.1-4.9.6-6.6,2.1-1.7,1.4-2.5,3.5-2.5,6v33.1h-17.4v-35.6Z"/>
    <path class="cls-3" d="M5111-1216.8c-2.5-.8-4.5-1.1-6-1.1-4.1,0-7.4,1.1-9.9,3.4-2.5,2.3-3.8,5.4-3.8,9.2s1.1,6.3,3.4,8.8c2.3,2.3,5.2,3.4,8.7,3.4s6.3-1.2,8.7-3.7c2.4-2.5,3.6-5.5,3.6-9.2v-53.2h17.4v53.9c0,8.7-2.8,15.8-8.3,21.3-5.5,5.5-12.7,8.3-21.3,8.3s-15.8-2.8-21.3-8.3c-5.5-5.5-8.3-12.6-8.3-21.2s2.7-15.4,8.2-21.1c5.5-5.6,12.4-8.5,20.7-8.5h4c.7,0,1.4,0,2.1.3.7.2,1.4.4,2.2.6v17Z"/>
    <path class="cls-3" d="M5165.2-1195.4l-6.5-8.5,17.7-12.8c-2.3-2-4.9-3-7.8-3s-7.1,1.4-9.9,4.2c-2.8,2.8-4.2,6.1-4.2,9.8s1.3,6.7,3.8,9.4c2.5,2.6,5.7,4,9.4,4s8.4-2.2,12.3-6.7l13.8,7.6c-1.7,2.7-3.1,4.7-4.3,6-1.2,1.3-3.5,3.3-7,5.7-3.4,2.5-8.3,3.7-14.7,3.7s-15.1-2.8-20.8-8.5c-5.7-5.7-8.5-12.7-8.5-20.9s2.9-15.5,8.6-21.2c5.7-5.7,12.9-8.5,21.5-8.5s11,1.2,14.4,3.5c3.5,2.3,6,4.5,7.6,6.6,1.3,1.7,2.8,4.5,4.6,8.3l-29.9,21.4Z"/>
    <path class="cls-3" d="M5200.1-1212.6c0-6.5,2.2-11.8,6.7-16.1,4.5-4.3,10.1-6.4,17-6.4h1.5l2.7.3v16.6h-1.4c-2.7-.1-4.9.6-6.6,2.1-1.7,1.4-2.5,3.5-2.5,6v33.1h-17.4v-35.6Z"/>
  </g>
  <g>
    <path class="cls-2" d="M-1981.1-476.4l-48.9-176.5h28l34.4,136.7h1.6l35.8-136.7h27.7l35.8,136.8h1.6l34.3-136.8h28.1l-49,176.5h-26.8l-37.1-132.2h-1.4l-37.1,132.2h-26.9Z"/>
    <path class="cls-2" d="M-1723.4-473.7c-13,0-24.3-2.8-33.7-8.4-9.4-5.6-16.6-13.5-21.7-23.7-5.1-10.2-7.6-22.2-7.6-35.9s2.5-25.5,7.6-35.8c5.1-10.3,12.2-18.4,21.4-24.2,9.2-5.8,19.9-8.7,32.2-8.7s14.7,1.2,21.7,3.7c7,2.5,13.3,6.3,18.9,11.6,5.6,5.3,10,12.1,13.2,20.6,3.2,8.4,4.8,18.6,4.8,30.6v9.1h-105.2v-19.3h80c0-6.8-1.4-12.8-4.1-18.1-2.8-5.3-6.6-9.4-11.6-12.5-5-3-10.8-4.6-17.5-4.6s-13.5,1.8-18.9,5.3c-5.4,3.5-9.5,8.1-12.4,13.8-2.9,5.7-4.4,11.8-4.4,18.4v15.1c0,8.8,1.6,16.4,4.7,22.6,3.1,6.2,7.5,10.9,13.1,14.2,5.6,3.2,12.2,4.9,19.7,4.9s9.3-.7,13.4-2.1c4-1.4,7.5-3.5,10.4-6.3,2.9-2.8,5.2-6.3,6.7-10.4l24.4,4.4c-2,7.2-5.4,13.5-10.5,18.8-5,5.4-11.3,9.5-18.9,12.5-7.6,3-16.2,4.4-25.8,4.4Z"/>
    <path class="cls-2" d="M-1637.9-476.4v-132.4h24.9v21h1.4c2.4-7.1,6.7-12.7,12.8-16.8,6.1-4.1,13.1-6.2,20.8-6.2s3.5,0,5.7.2c2.2.1,3.9.3,5.2.4v24.6c-1-.3-2.9-.6-5.5-1-2.6-.4-5.3-.6-7.9-.6-6.1,0-11.5,1.3-16.2,3.8-4.7,2.6-8.5,6.1-11.2,10.6-2.8,4.5-4.1,9.6-4.1,15.4v80.8h-25.8Z"/>
    <path class="cls-2" d="M-1544.6-476.4v-176.5h25.8v176.5h-25.8ZM-1520.9-521.3l-.2-31.5h4.5l52.7-56h30.8l-60.1,63.8h-4l-23.7,23.7ZM-1461-476.4l-47.4-62.9,17.8-18,61.3,80.9h-31.6Z"/>
    <path class="cls-2" d="M-1246.1-576.4l-23.4,4.1c-1-3-2.5-5.8-4.6-8.5-2.1-2.7-4.9-4.9-8.5-6.6-3.6-1.7-8-2.6-13.4-2.6s-13.4,1.6-18.3,4.9c-4.9,3.2-7.3,7.4-7.3,12.5s1.6,8,4.9,10.7c3.3,2.7,8.6,4.9,15.9,6.6l21,4.8c12.2,2.8,21.3,7.2,27.2,13,6,5.9,9,13.5,9,22.8s-2.3,15-6.9,21.2c-4.6,6.2-10.9,11-19,14.5-8.1,3.5-17.5,5.3-28.2,5.3s-26.9-3.2-36.3-9.5c-9.4-6.3-15.1-15.4-17.2-27.1l24.9-3.8c1.6,6.5,4.7,11.4,9.6,14.7,4.8,3.3,11.1,5,18.9,5s15.2-1.8,20.3-5.3c5.1-3.5,7.6-7.9,7.6-13s-1.5-7.6-4.6-10.4c-3.1-2.8-7.8-4.9-14.1-6.4l-22.4-4.9c-12.4-2.8-21.5-7.3-27.4-13.4-5.9-6.1-8.8-13.9-8.8-23.4s2.2-14.6,6.5-20.5c4.4-5.9,10.4-10.4,18.1-13.7,7.7-3.3,16.5-5,26.5-5,14.3,0,25.6,3.1,33.8,9.3,8.2,6.2,13.6,14.4,16.3,24.8Z"/>
    <path class="cls-2" d="M-1189.5-652.9v176.5h-25.8v-176.5h25.8Z"/>
    <path class="cls-2" d="M-1141.9-629.2c-4.5,0-8.3-1.5-11.5-4.5-3.2-3-4.8-6.6-4.8-10.8s1.6-7.9,4.8-10.9c3.2-3,7-4.5,11.5-4.5s8.3,1.5,11.5,4.5c3.2,3,4.8,6.6,4.8,10.8s-1.6,7.9-4.8,10.9c-3.2,3-7,4.5-11.5,4.5ZM-1154.9-476.4v-132.4h25.8v132.4h-25.8Z"/>
    <path class="cls-2" d="M-1094.5-476.4v-132.4h24.7v21.5h1.6c2.8-7.3,7.3-13,13.5-17.1,6.3-4.1,13.8-6.2,22.5-6.2s16.3,2.1,22.3,6.2c6,4.1,10.4,9.8,13.3,17.1h1.4c3.2-7.1,8.2-12.7,15.1-16.9s15.1-6.3,24.6-6.3,21.8,3.8,29.4,11.3c7.6,7.5,11.4,18.9,11.4,34v88.8h-25.8v-86.3c0-9-2.4-15.5-7.3-19.5-4.9-4-10.7-6-17.5-6s-14.9,2.6-19.6,7.7c-4.7,5.1-7,11.7-7,19.8v84.4h-25.7v-88c0-7.2-2.2-13-6.7-17.3-4.5-4.4-10.3-6.5-17.5-6.5s-9.4,1.3-13.5,3.8c-4.1,2.6-7.4,6.1-9.9,10.6-2.5,4.5-3.7,9.8-3.7,15.8v81.6h-25.8Z"/>
    <path class="cls-2" d="M-880.1-476.4v-132.4h24.7v21.5h1.6c2.8-7.3,7.3-13,13.5-17.1,6.3-4.1,13.8-6.2,22.5-6.2s16.3,2.1,22.3,6.2c6,4.1,10.4,9.8,13.3,17.1h1.4c3.2-7.1,8.2-12.7,15.1-16.9s15.1-6.3,24.6-6.3,21.8,3.8,29.4,11.3c7.6,7.5,11.4,18.9,11.4,34v88.8h-25.8v-86.3c0-9-2.4-15.5-7.3-19.5-4.9-4-10.7-6-17.5-6s-14.9,2.6-19.6,7.7c-4.7,5.1-7,11.7-7,19.8v84.4h-25.7v-88c0-7.2-2.2-13-6.7-17.3-4.5-4.4-10.3-6.5-17.5-6.5s-9.4,1.3-13.5,3.8c-4.1,2.6-7.4,6.1-9.9,10.6-2.5,4.5-3.7,9.8-3.7,15.8v81.6h-25.8Z"/>
    <path class="cls-2" d="M-608.6-473.7c-13,0-24.3-2.8-33.6-8.4-9.4-5.6-16.6-13.5-21.7-23.7-5.1-10.2-7.6-22.2-7.6-35.9s2.5-25.5,7.6-35.8c5.1-10.3,12.2-18.4,21.4-24.2,9.2-5.8,19.9-8.7,32.2-8.7s14.7,1.2,21.7,3.7c7,2.5,13.3,6.3,18.9,11.6,5.6,5.3,10,12.1,13.2,20.6,3.2,8.4,4.8,18.6,4.8,30.6v9.1h-105.2v-19.3h80c0-6.8-1.4-12.8-4.1-18.1-2.8-5.3-6.6-9.4-11.6-12.5-5-3-10.8-4.6-17.5-4.6s-13.5,1.8-18.9,5.3c-5.4,3.5-9.5,8.1-12.4,13.8-2.9,5.7-4.4,11.8-4.4,18.4v15.1c0,8.8,1.6,16.4,4.7,22.6,3.1,6.2,7.5,10.9,13.1,14.2,5.6,3.2,12.2,4.9,19.7,4.9s9.3-.7,13.4-2.1c4-1.4,7.5-3.5,10.4-6.3,2.9-2.8,5.2-6.3,6.7-10.4l24.4,4.4c-2,7.2-5.4,13.5-10.5,18.8-5,5.4-11.3,9.5-18.9,12.5-7.6,3-16.2,4.4-25.8,4.4Z"/>
    <path class="cls-2" d="M-523.2-476.4v-132.4h24.9v21h1.4c2.4-7.1,6.7-12.7,12.8-16.8,6.1-4.1,13.1-6.2,20.8-6.2s3.5,0,5.7.2c2.2.1,3.9.3,5.2.4v24.6c-1-.3-2.9-.6-5.5-1-2.6-.4-5.3-.6-7.9-.6-6.1,0-11.5,1.3-16.2,3.8-4.7,2.6-8.5,6.1-11.2,10.6-2.8,4.5-4.1,9.6-4.1,15.4v80.8h-25.8Z"/>
    <path class="cls-2" d="M-412.9-474.8c-4.7,0-8.8-1.7-12.2-5-3.4-3.4-5.1-7.4-5.1-12.2s1.7-8.7,5.1-12.1c3.4-3.4,7.4-5,12.2-5s8.8,1.7,12.2,5c3.4,3.4,5.1,7.4,5.1,12.1s-.8,6-2.4,8.7c-1.6,2.6-3.7,4.7-6.2,6.2-2.6,1.6-5.5,2.3-8.6,2.3Z"/>
  </g>
  <g>
    <path class="cls-3" d="M1271.6-718.9c-49.3,0-91.1-17.7-125.4-53-34.3-35.3-51.5-78.6-51.5-129.9s18.2-98.2,54.7-135.2c36.5-37,81-55.5,133.6-55.5s95.9,17.9,130,53.6c34.1,35.8,51.2,81.8,51.2,138.2v173.3h-108v-169.8c0-27-6.9-48.4-20.6-64.3-13.7-15.9-32.2-23.8-55.4-23.8s-39.3,7.4-54,22.1c-14.7,14.8-22,33.1-22,54.9s8,41.3,24.2,56.7c16.1,15.5,36.2,23.2,60.4,23.2s23.4-3.3,39.1-9.9v109.3c-22.3,6.7-41,10-56.1,10Z"/>
    <path class="cls-3" d="M1568.2-1259.6c18,0,33.5,6.3,46.7,19,13.1,12.6,19.7,28.2,19.7,46.7s-6.3,34.8-19,47.4c-12.6,12.6-28.4,19-47.4,19s-33.5-6.3-46.7-19c-13.1-12.6-19.7-28.2-19.7-46.7s6.3-34.8,19-47.4c12.6-12.6,28.4-19,47.4-19ZM1624.3-1092.6v365.3h-111.6v-365.3h111.6Z"/>
    <path class="cls-3" d="M101.5-1256.3v525.7H-10v-525.7h111.6Z"/>
    <path class="cls-3" d="M337.8-932.2c0-46.6,16.8-85.5,50.3-116.8,33.5-31.3,74.6-46.9,123.2-46.9s90.9,15.4,124,46.2c33.1,30.8,49.6,70,49.6,117.5v201.6h-110.8v-197.6c0-17.5-5.8-32.3-17.5-44.5-11.7-12.1-26.5-18.2-44.5-18.2s-32.3,5.8-44.5,17.5c-12.2,11.7-18.2,26.7-18.2,45.2v197.6h-111.6v-201.6Z"/>
    <path class="cls-3" d="M636.7-986.2h89.8c26.4-.6,48.5-6.7,66.7-20.1,18.2-13.4,27.3-29.8,27.3-49.2l1.8-86.6h110.1l-1.8,104.1c0,43.8-22.9,76.6-68.5,98.4,45.7,21.9,68.5,58.8,68.5,110.8l1.8,98.1h-110.1l-1.8-86.4c0-21.9-8.3-39.3-24.8-52.1-16.5-12.9-39.6-18.5-69.3-19.3h-89.8"/>
    <path class="cls-3" d="M219.3-1262.9c18,0,33.5,6.3,46.7,19,13.1,12.6,19.7,28.2,19.7,46.7s-6.3,34.8-19,47.4c-12.6,12.6-28.4,19-47.4,19s-33.5-6.3-46.7-19c-13.1-12.6-19.7-28.2-19.7-46.7s6.3-34.8,19-47.4c12.6-12.6,28.4-19,47.4-19ZM275.4-1095.9v365.3h-111.6v-365.3h111.6Z"/>
    <path class="cls-1" d="M1005-1002.3c18,0,33.5,6.3,46.7,19,13.1,12.6,19.7,28.2,19.7,46.7s-6.3,34.8-19,47.4-28.4,19-47.4,19-33.5-6.3-46.7-19c-13.1-12.6-19.7-28.2-19.7-46.7s6.3-34.8,19-47.4c12.6-12.6,28.4-19,47.4-19Z"/>
  </g>
  <g>
    <path class="cls-3" d="M38.9-464.1l-48.9-176.5h28l34.4,136.7h1.6l35.8-136.7h27.7l35.8,136.8h1.6l34.3-136.8h28.1l-49,176.5h-26.8l-37.1-132.2h-1.4l-37.1,132.2h-26.9Z"/>
    <path class="cls-3" d="M296.6-461.4c-13,0-24.3-2.8-33.7-8.4-9.4-5.6-16.6-13.5-21.7-23.7-5.1-10.2-7.6-22.2-7.6-35.9s2.5-25.5,7.6-35.8c5.1-10.3,12.2-18.4,21.4-24.2,9.2-5.8,19.9-8.7,32.2-8.7s14.7,1.2,21.7,3.7c7,2.5,13.3,6.3,18.9,11.6,5.6,5.3,10,12.1,13.2,20.6,3.2,8.4,4.8,18.6,4.8,30.6v9.1h-105.2v-19.3h80c0-6.8-1.4-12.8-4.1-18.1-2.8-5.3-6.6-9.4-11.6-12.5-5-3-10.8-4.6-17.5-4.6s-13.5,1.8-18.9,5.3c-5.4,3.5-9.5,8.1-12.4,13.8-2.9,5.7-4.4,11.8-4.4,18.4v15.1c0,8.8,1.6,16.4,4.7,22.6,3.1,6.2,7.5,10.9,13.1,14.2,5.6,3.2,12.2,4.9,19.7,4.9s9.3-.7,13.4-2.1c4-1.4,7.5-3.5,10.4-6.3,2.9-2.8,5.2-6.3,6.7-10.4l24.4,4.4c-2,7.2-5.4,13.5-10.5,18.8-5,5.4-11.3,9.5-18.9,12.5-7.6,3-16.2,4.4-25.8,4.4Z"/>
    <path class="cls-3" d="M382.1-464.1v-132.4h24.9v21h1.4c2.4-7.1,6.7-12.7,12.8-16.8,6.1-4.1,13.1-6.2,20.8-6.2s3.5,0,5.7.2c2.2.1,3.9.3,5.2.4v24.6c-1-.3-2.9-.6-5.5-1-2.6-.4-5.3-.6-7.9-.6-6.1,0-11.5,1.3-16.2,3.8-4.7,2.6-8.5,6.1-11.2,10.6-2.8,4.5-4.1,9.6-4.1,15.4v80.8h-25.8Z"/>
    <path class="cls-3" d="M475.4-464.1v-176.5h25.8v176.5h-25.8ZM499.1-509l-.2-31.5h4.5l52.7-56h30.8l-60.1,63.8h-4l-23.7,23.7ZM559-464.1l-47.4-62.9,17.8-18,61.3,80.9h-31.6Z"/>
    <path class="cls-3" d="M773.9-564.1l-23.4,4.1c-1-3-2.5-5.8-4.6-8.5-2.1-2.7-4.9-4.9-8.5-6.6-3.6-1.7-8-2.6-13.4-2.6s-13.4,1.6-18.3,4.9c-4.9,3.2-7.3,7.4-7.3,12.5s1.6,8,4.9,10.7c3.3,2.7,8.6,4.9,15.9,6.6l21,4.8c12.2,2.8,21.3,7.2,27.2,13,6,5.9,9,13.5,9,22.8s-2.3,15-6.9,21.2c-4.6,6.2-10.9,11-19,14.5-8.1,3.5-17.5,5.3-28.2,5.3s-26.9-3.2-36.3-9.5c-9.4-6.3-15.1-15.4-17.2-27.1l24.9-3.8c1.6,6.5,4.7,11.4,9.6,14.7,4.8,3.3,11.1,5,18.9,5s15.2-1.8,20.3-5.3c5.1-3.5,7.6-7.9,7.6-13s-1.5-7.6-4.6-10.4c-3.1-2.8-7.8-4.9-14.1-6.4l-22.4-4.9c-12.4-2.8-21.5-7.3-27.4-13.4-5.9-6.1-8.8-13.9-8.8-23.4s2.2-14.6,6.5-20.5c4.4-5.9,10.4-10.4,18.1-13.7,7.7-3.3,16.5-5,26.5-5,14.3,0,25.6,3.1,33.8,9.3,8.2,6.2,13.6,14.4,16.3,24.8Z"/>
    <path class="cls-3" d="M830.5-640.6v176.5h-25.8v-176.5h25.8Z"/>
    <path class="cls-3" d="M878.1-616.9c-4.5,0-8.3-1.5-11.5-4.5-3.2-3-4.8-6.6-4.8-10.8s1.6-7.9,4.8-10.9c3.2-3,7-4.5,11.5-4.5s8.3,1.5,11.5,4.5c3.2,3,4.8,6.6,4.8,10.8s-1.6,7.9-4.8,10.9c-3.2,3-7,4.5-11.5,4.5ZM865.1-464.1v-132.4h25.8v132.4h-25.8Z"/>
    <path class="cls-3" d="M925.5-464.1v-132.4h24.7v21.5h1.6c2.8-7.3,7.3-13,13.5-17.1,6.3-4.1,13.8-6.2,22.5-6.2s16.3,2.1,22.3,6.2c6,4.1,10.4,9.8,13.3,17.1h1.4c3.2-7.1,8.2-12.7,15.1-16.9s15.1-6.3,24.6-6.3,21.8,3.8,29.4,11.3c7.6,7.5,11.4,18.9,11.4,34v88.8h-25.8v-86.3c0-9-2.4-15.5-7.3-19.5-4.9-4-10.7-6-17.5-6s-14.9,2.6-19.6,7.7c-4.7,5.1-7,11.7-7,19.8v84.4h-25.7v-88c0-7.2-2.2-13-6.7-17.3-4.5-4.4-10.3-6.5-17.5-6.5s-9.4,1.3-13.5,3.8c-4.1,2.6-7.4,6.1-9.9,10.6-2.5,4.5-3.7,9.8-3.7,15.8v81.6h-25.8Z"/>
    <path class="cls-3" d="M1139.9-464.1v-132.4h24.7v21.5h1.6c2.8-7.3,7.3-13,13.5-17.1,6.3-4.1,13.8-6.2,22.5-6.2s16.3,2.1,22.3,6.2c6,4.1,10.4,9.8,13.3,17.1h1.4c3.2-7.1,8.2-12.7,15.1-16.9s15.1-6.3,24.6-6.3,21.8,3.8,29.4,11.3c7.6,7.5,11.4,18.9,11.4,34v88.8h-25.8v-86.3c0-9-2.4-15.5-7.3-19.5-4.9-4-10.7-6-17.5-6s-14.9,2.6-19.6,7.7c-4.7,5.1-7,11.7-7,19.8v84.4h-25.7v-88c0-7.2-2.2-13-6.7-17.3-4.5-4.4-10.3-6.5-17.5-6.5s-9.4,1.3-13.5,3.8c-4.1,2.6-7.4,6.1-9.9,10.6-2.5,4.5-3.7,9.8-3.7,15.8v81.6h-25.8Z"/>
    <path class="cls-3" d="M1411.4-461.4c-13,0-24.3-2.8-33.6-8.4-9.4-5.6-16.6-13.5-21.7-23.7-5.1-10.2-7.6-22.2-7.6-35.9s2.5-25.5,7.6-35.8c5.1-10.3,12.2-18.4,21.4-24.2,9.2-5.8,19.9-8.7,32.2-8.7s14.7,1.2,21.7,3.7c7,2.5,13.3,6.3,18.9,11.6,5.6,5.3,10,12.1,13.2,20.6,3.2,8.4,4.8,18.6,4.8,30.6v9.1h-105.2v-19.3h80c0-6.8-1.4-12.8-4.1-18.1-2.8-5.3-6.6-9.4-11.6-12.5-5-3-10.8-4.6-17.5-4.6s-13.5,1.8-18.9,5.3c-5.4,3.5-9.5,8.1-12.4,13.8-2.9,5.7-4.4,11.8-4.4,18.4v15.1c0,8.8,1.6,16.4,4.7,22.6,3.1,6.2,7.5,10.9,13.1,14.2,5.6,3.2,12.2,4.9,19.7,4.9s9.3-.7,13.4-2.1c4-1.4,7.5-3.5,10.4-6.3,2.9-2.8,5.2-6.3,6.7-10.4l24.4,4.4c-2,7.2-5.4,13.5-10.5,18.8-5,5.4-11.3,9.5-18.9,12.5-7.6,3-16.2,4.4-25.8,4.4Z"/>
    <path class="cls-3" d="M1496.8-464.1v-132.4h24.9v21h1.4c2.4-7.1,6.7-12.7,12.8-16.8,6.1-4.1,13.1-6.2,20.8-6.2s3.5,0,5.7.2c2.2.1,3.9.3,5.2.4v24.6c-1-.3-2.9-.6-5.5-1-2.6-.4-5.3-.6-7.9-.6-6.1,0-11.5,1.3-16.2,3.8-4.7,2.6-8.5,6.1-11.2,10.6-2.8,4.5-4.1,9.6-4.1,15.4v80.8h-25.8Z"/>
    <path class="cls-3" d="M1607.1-462.4c-4.7,0-8.8-1.7-12.2-5-3.4-3.4-5.1-7.4-5.1-12.2s1.7-8.7,5.1-12.1c3.4-3.4,7.4-5,12.2-5s8.8,1.7,12.2,5c3.4,3.4,5.1,7.4,5.1,12.1s-.8,6-2.4,8.7c-1.6,2.6-3.7,4.7-6.2,6.2-2.6,1.6-5.5,2.3-8.6,2.3Z"/>
  </g>
  <g>
    <path class="cls-2" d="M-743.1-1807.4c-49.3,0-91.1-17.7-125.4-53-34.3-35.3-51.5-78.6-51.5-129.9s18.2-98.2,54.7-135.2c36.5-37,81-55.5,133.6-55.5s95.9,17.9,130,53.6c34.1,35.8,51.2,81.8,51.2,138.2v173.3h-108v-169.8c0-27-6.9-48.4-20.6-64.3-13.7-15.9-32.2-23.8-55.4-23.8s-39.3,7.4-54,22.1c-14.7,14.8-22,33.1-22,54.9s8,41.3,24.2,56.7c16.1,15.5,36.2,23.2,60.4,23.2s23.4-3.3,39.1-9.9v109.3c-22.3,6.7-41,10-56.1,10Z"/>
    <path class="cls-2" d="M-446.5-2348c18,0,33.5,6.3,46.7,19,13.1,12.6,19.7,28.2,19.7,46.7s-6.3,34.8-19,47.4c-12.6,12.6-28.4,19-47.4,19s-33.5-6.3-46.7-19c-13.1-12.6-19.7-28.2-19.7-46.7s6.3-34.8,19-47.4c12.6-12.6,28.4-19,47.4-19ZM-390.3-2181v365.3h-111.6v-365.3h111.6Z"/>
    <path class="cls-2" d="M-1913.1-2344.7v525.7h-111.6v-525.7h111.6Z"/>
    <path class="cls-2" d="M-1676.8-2020.6c0-46.6,16.8-85.5,50.3-116.8,33.5-31.3,74.6-46.9,123.2-46.9s90.9,15.4,124,46.2c33.1,30.8,49.6,70,49.6,117.5v201.6h-110.8v-197.6c0-17.5-5.8-32.3-17.5-44.5-11.7-12.1-26.5-18.2-44.5-18.2s-32.3,5.8-44.5,17.5c-12.2,11.7-18.2,26.7-18.2,45.2v197.6h-111.6v-201.6Z"/>
    <path class="cls-2" d="M-1377.9-2074.6h89.8c26.4-.6,48.5-6.7,66.7-20.1,18.2-13.4,27.3-29.8,27.3-49.2l1.8-86.6h110.1l-1.8,104.1c0,43.8-22.9,76.6-68.5,98.4,45.7,21.9,68.5,58.8,68.5,110.8l1.8,98.1h-110.1l-1.8-86.4c0-21.9-8.3-39.3-24.8-52.1-16.5-12.9-39.6-18.5-69.3-19.3h-89.8"/>
    <path class="cls-2" d="M-1795.3-2351.3c18,0,33.5,6.3,46.7,19,13.1,12.6,19.7,28.2,19.7,46.7s-6.3,34.8-19,47.4c-12.6,12.6-28.4,19-47.4,19s-33.5-6.3-46.7-19c-13.1-12.6-19.7-28.2-19.7-46.7s6.3-34.8,19-47.4c12.6-12.6,28.4-19,47.4-19ZM-1739.2-2184.3v365.3h-111.6v-365.3h111.6Z"/>
    <path class="cls-1" d="M-1009.7-2090.7c18,0,33.5,6.3,46.7,19,13.1,12.6,19.7,28.2,19.7,46.7s-6.3,34.8-19,47.4-28.4,19-47.4,19-33.5-6.3-46.7-19c-13.1-12.6-19.7-28.2-19.7-46.7s6.3-34.8,19-47.4c12.6-12.6,28.4-19,47.4-19Z"/>
  </g>
  <g>
    <path class="cls-2" d="M5542.7-1237.7h-20.2v-62.5h20.9c6.1,0,11.4,1.2,15.8,3.7,4.4,2.5,7.8,6.1,10.1,10.7s3.5,10.2,3.5,16.7-1.2,12.1-3.6,16.8c-2.4,4.7-5.8,8.3-10.3,10.8-4.5,2.5-9.9,3.8-16.2,3.8ZM5531.8-1245.9h10.3c4.8,0,8.7-.9,11.9-2.7s5.5-4.4,7.1-7.8c1.6-3.4,2.4-7.6,2.4-12.6s-.8-9.1-2.3-12.5c-1.6-3.4-3.9-6-6.9-7.8s-6.9-2.7-11.5-2.7h-10.9v46.1Z"/>
    <path class="cls-2" d="M5603.9-1236.7c-4.6,0-8.6-1-11.9-3-3.3-2-5.9-4.8-7.7-8.4-1.8-3.6-2.7-7.9-2.7-12.7s.9-9,2.7-12.7,4.3-6.5,7.6-8.6c3.2-2.1,7-3.1,11.4-3.1s5.2.4,7.7,1.3c2.5.9,4.7,2.2,6.7,4.1,2,1.9,3.5,4.3,4.7,7.3,1.1,3,1.7,6.6,1.7,10.9v3.2h-37.3v-6.8h28.3c0-2.4-.5-4.5-1.5-6.4-1-1.9-2.3-3.3-4.1-4.4-1.8-1.1-3.8-1.6-6.2-1.6s-4.8.6-6.7,1.9c-1.9,1.3-3.4,2.9-4.4,4.9-1,2-1.5,4.2-1.5,6.5v5.3c0,3.1.6,5.8,1.7,8,1.1,2.2,2.7,3.9,4.7,5,2,1.2,4.3,1.7,7,1.7s3.3-.2,4.7-.7c1.4-.5,2.7-1.2,3.7-2.2,1-1,1.8-2.2,2.4-3.7l8.6,1.6c-.7,2.5-1.9,4.8-3.7,6.7-1.8,1.9-4,3.4-6.7,4.4-2.7,1-5.7,1.6-9.1,1.6Z"/>
    <path class="cls-2" d="M5633.3-1237.7v-6.3l25.4-32.3v-.4h-24.6v-7.9h36v6.7l-24.4,31.9v.4h25.3v7.9h-37.7Z"/>
    <path class="cls-2" d="M5701.9-1236.7c-4.6,0-8.6-1-11.9-3-3.3-2-5.9-4.8-7.7-8.4-1.8-3.6-2.7-7.9-2.7-12.7s.9-9,2.7-12.7,4.3-6.5,7.6-8.6c3.2-2.1,7-3.1,11.4-3.1s5.2.4,7.7,1.3c2.5.9,4.7,2.2,6.7,4.1,2,1.9,3.5,4.3,4.7,7.3,1.1,3,1.7,6.6,1.7,10.9v3.2h-37.3v-6.8h28.3c0-2.4-.5-4.5-1.5-6.4-1-1.9-2.3-3.3-4.1-4.4-1.8-1.1-3.8-1.6-6.2-1.6s-4.8.6-6.7,1.9c-1.9,1.3-3.4,2.9-4.4,4.9-1,2-1.5,4.2-1.5,6.5v5.3c0,3.1.6,5.8,1.7,8,1.1,2.2,2.7,3.9,4.7,5,2,1.2,4.3,1.7,7,1.7s3.3-.2,4.7-.7c1.4-.5,2.7-1.2,3.7-2.2,1-1,1.8-2.2,2.4-3.7l8.6,1.6c-.7,2.5-1.9,4.8-3.7,6.7-1.8,1.9-4,3.4-6.7,4.4-2.7,1-5.7,1.6-9.1,1.6Z"/>
    <path class="cls-2" d="M5755-1237.7v-46.9h8.8v7.6h.6c1-2.6,2.6-4.6,4.8-6.1,2.2-1.5,4.9-2.2,8-2.2s5.8.7,7.9,2.2,3.7,3.5,4.7,6h.5c1.1-2.5,2.9-4.5,5.3-6,2.4-1.5,5.4-2.2,8.7-2.2s7.7,1.3,10.4,4c2.7,2.7,4,6.7,4,12.1v31.5h-9.1v-30.6c0-3.2-.9-5.5-2.6-6.9-1.7-1.4-3.8-2.1-6.2-2.1s-5.3.9-6.9,2.7c-1.6,1.8-2.5,4.2-2.5,7v29.9h-9.1v-31.2c0-2.5-.8-4.6-2.4-6.1-1.6-1.5-3.7-2.3-6.2-2.3s-3.3.5-4.8,1.4c-1.5.9-2.6,2.2-3.5,3.8s-1.3,3.5-1.3,5.6v28.9h-9.1Z"/>
    <path class="cls-2" d="M5850.7-1236.7c-4.4,0-8.2-1-11.5-3-3.3-2-5.8-4.8-7.6-8.5s-2.7-7.9-2.7-12.7.9-9.1,2.7-12.8c1.8-3.6,4.4-6.5,7.6-8.5,3.3-2,7.1-3,11.5-3s8.2,1,11.5,3,5.8,4.8,7.6,8.5c1.8,3.6,2.7,7.9,2.7,12.8s-.9,9.1-2.7,12.7-4.4,6.4-7.6,8.5-7.1,3-11.5,3ZM5850.7-1244.4c2.8,0,5.2-.8,7.1-2.3,1.9-1.5,3.3-3.5,4.2-6,.9-2.5,1.4-5.3,1.4-8.3s-.5-5.7-1.4-8.3c-.9-2.5-2.3-4.5-4.2-6.1-1.9-1.5-4.2-2.3-7.1-2.3s-5.2.8-7.1,2.3c-1.9,1.5-3.3,3.5-4.2,6.1-.9,2.5-1.4,5.3-1.4,8.3s.5,5.8,1.4,8.3c.9,2.5,2.3,4.5,4.2,6,1.9,1.5,4.3,2.3,7.1,2.3Z"/>
    <path class="cls-2" d="M5882.7-1237.7v-62.5h9.1v62.5h-9.1ZM5891.1-1253.6v-11.1c0,0,1.5,0,1.5,0l18.7-19.9h10.9l-21.3,22.6h-1.4l-8.4,8.4ZM5912.4-1237.7l-16.8-22.3,6.3-6.4,21.7,28.7h-11.2Z"/>
    <path class="cls-2" d="M5993.5-1284.6l-17,46.9h-9.8l-17-46.9h9.8l11.9,36.1h.5l11.8-36.1h9.8Z"/>
    <path class="cls-2" d="M6031.8-1257.1v-27.5h9.2v46.9h-9v-8.1h-.5c-1.1,2.5-2.8,4.6-5.2,6.2-2.4,1.7-5.3,2.5-8.8,2.5s-5.7-.7-8-2c-2.3-1.3-4.1-3.3-5.4-5.9-1.3-2.6-2-5.9-2-9.7v-29.8h9.1v28.7c0,3.2.9,5.7,2.7,7.6s4.1,2.8,6.9,2.8,3.4-.4,5.1-1.3c1.7-.9,3.1-2.1,4.2-3.9s1.7-3.9,1.7-6.6Z"/>
    <path class="cls-2" d="M6062.3-1300.2v62.5h-9.1v-62.5h9.1Z"/>
    <path class="cls-2" d="M6096.5-1284.6v7.3h-25.6v-7.3h25.6ZM6077.8-1295.8h9.1v44.4c0,1.8.3,3.1.8,4,.5.9,1.2,1.5,2.1,1.8.8.3,1.8.5,2.8.5s1.4,0,1.9-.2c.5-.1,1-.2,1.3-.2l1.6,7.5c-.5.2-1.3.4-2.3.6s-2.2.3-3.7.4c-2.4,0-4.6-.4-6.7-1.3-2.1-.9-3.8-2.3-5-4.2-1.3-1.9-1.9-4.2-1.9-7.1v-46.3Z"/>
    <path class="cls-2" d="M5539.2-1134.5v-6.3l25.4-32.3v-.4h-24.6v-7.9h36v6.7l-24.4,31.9v.4h25.3v7.9h-37.7Z"/>
    <path class="cls-2" d="M5592.3-1188.6c-1.6,0-2.9-.5-4.1-1.6-1.1-1.1-1.7-2.3-1.7-3.8s.6-2.8,1.7-3.9c1.1-1.1,2.5-1.6,4.1-1.6s2.9.5,4.1,1.6c1.1,1.1,1.7,2.3,1.7,3.8s-.6,2.8-1.7,3.9c-1.1,1.1-2.5,1.6-4.1,1.6ZM5587.7-1134.5v-46.9h9.1v46.9h-9.1Z"/>
    <path class="cls-2" d="M5628.8-1133.5c-4.5,0-8.4-1-11.7-3.1-3.3-2.1-5.8-4.9-7.5-8.6-1.8-3.6-2.6-7.8-2.6-12.5s.9-9,2.7-12.6c1.8-3.7,4.3-6.5,7.6-8.6,3.3-2.1,7.1-3.1,11.5-3.1s6.7.7,9.5,2c2.8,1.3,5,3.2,6.8,5.5,1.7,2.4,2.7,5.1,3.1,8.3h-8.9c-.5-2.2-1.6-4.1-3.3-5.7-1.7-1.6-4.1-2.4-7-2.4s-4.8.7-6.7,2c-1.9,1.3-3.4,3.2-4.4,5.7-1.1,2.5-1.6,5.4-1.6,8.7s.5,6.4,1.6,8.9c1,2.5,2.5,4.4,4.4,5.8,1.9,1.4,4.1,2,6.7,2s3.3-.3,4.7-1c1.4-.6,2.6-1.6,3.6-2.8,1-1.2,1.6-2.6,2-4.3h8.9c-.3,3-1.3,5.7-3,8.1s-3.9,4.3-6.6,5.6c-2.8,1.4-6,2-9.7,2Z"/>
    <path class="cls-2" d="M5667-1162.3v27.9h-9.1v-62.5h9v23.3h.6c1.1-2.5,2.8-4.5,5-6,2.3-1.5,5.2-2.2,8.9-2.2s6,.7,8.4,2c2.4,1.3,4.3,3.3,5.6,5.9,1.3,2.6,2,5.9,2,9.8v29.8h-9.1v-28.7c0-3.4-.9-6.1-2.7-8-1.8-1.9-4.2-2.9-7.4-2.9s-4.1.5-5.8,1.4c-1.7.9-3,2.3-4,4-1,1.8-1.5,3.9-1.5,6.4Z"/>
    <path class="cls-2" d="M5708.7-1134.5v-6.3l25.4-32.3v-.4h-24.6v-7.9h36v6.7l-24.4,31.9v.4h25.3v7.9h-37.7Z"/>
    <path class="cls-2" d="M5777.3-1133.5c-4.6,0-8.6-1-11.9-3-3.3-2-5.9-4.8-7.7-8.4-1.8-3.6-2.7-7.9-2.7-12.7s.9-9,2.7-12.7,4.3-6.5,7.6-8.6c3.2-2.1,7-3.1,11.4-3.1s5.2.4,7.7,1.3c2.5.9,4.7,2.2,6.7,4.1,2,1.9,3.5,4.3,4.7,7.3,1.1,3,1.7,6.6,1.7,10.9v3.2h-37.3v-6.8h28.3c0-2.4-.5-4.5-1.5-6.4-1-1.9-2.3-3.3-4.1-4.4-1.8-1.1-3.8-1.6-6.2-1.6s-4.8.6-6.7,1.9c-1.9,1.3-3.4,2.9-4.4,4.9-1,2-1.5,4.2-1.5,6.5v5.3c0,3.1.6,5.8,1.7,8,1.1,2.2,2.7,3.9,4.7,5,2,1.2,4.3,1.7,7,1.7s3.3-.2,4.7-.7c1.4-.5,2.7-1.2,3.7-2.2,1-1,1.8-2.2,2.4-3.7l8.6,1.6c-.7,2.5-1.9,4.8-3.7,6.7-1.8,1.9-4,3.4-6.7,4.4-2.7,1-5.7,1.6-9.1,1.6Z"/>
    <path class="cls-2" d="M5816.7-1197v62.5h-9.1v-62.5h9.1Z"/>
    <path class="cls-2" d="M5851.3-1181.4v7.3h-26.5v-7.3h26.5ZM5832.1-1134.5v-52.3c0-2.9.6-5.4,1.9-7.3,1.3-1.9,3-3.4,5.1-4.4s4.4-1.5,6.9-1.5,3.4.1,4.7.4c1.3.3,2.3.6,2.9.8l-2.1,7.4c-.4-.1-1-.3-1.6-.4s-1.5-.3-2.4-.3c-2.2,0-3.8.5-4.7,1.6-.9,1.1-1.4,2.7-1.4,4.8v51.1h-9.1Z"/>
    <path class="cls-2" d="M5892.7-1162.3v27.9h-9.1v-46.9h8.8v7.6h.6c1.1-2.5,2.8-4.5,5.1-6s5.2-2.3,8.8-2.3,6,.7,8.4,2c2.4,1.3,4.3,3.3,5.6,5.9,1.3,2.6,2,5.9,2,9.7v29.8h-9.1v-28.7c0-3.4-.9-6.1-2.7-8-1.8-1.9-4.2-2.9-7.3-2.9s-4,.5-5.6,1.4c-1.6.9-2.9,2.3-3.9,4-.9,1.8-1.4,3.9-1.4,6.4Z"/>
    <path class="cls-2" d="M5939.5-1188.6c-1.6,0-2.9-.5-4.1-1.6-1.1-1.1-1.7-2.3-1.7-3.8s.6-2.8,1.7-3.9c1.1-1.1,2.5-1.6,4.1-1.6s2.9.5,4.1,1.6c1.1,1.1,1.7,2.3,1.7,3.8s-.6,2.8-1.7,3.9c-1.1,1.1-2.5,1.6-4.1,1.6ZM5934.9-1134.5v-46.9h9.1v46.9h-9.1Z"/>
    <path class="cls-2" d="M5976.5-1133.5c-4.6,0-8.6-1-11.9-3-3.3-2-5.9-4.8-7.7-8.4-1.8-3.6-2.7-7.9-2.7-12.7s.9-9,2.7-12.7,4.3-6.5,7.6-8.6c3.2-2.1,7-3.1,11.4-3.1s5.2.4,7.7,1.3c2.5.9,4.7,2.2,6.7,4.1,2,1.9,3.5,4.3,4.7,7.3,1.1,3,1.7,6.6,1.7,10.9v3.2h-37.3v-6.8h28.3c0-2.4-.5-4.5-1.5-6.4-1-1.9-2.3-3.3-4.1-4.4-1.8-1.1-3.8-1.6-6.2-1.6s-4.8.6-6.7,1.9c-1.9,1.3-3.4,2.9-4.4,4.9-1,2-1.5,4.2-1.5,6.5v5.3c0,3.1.6,5.8,1.7,8,1.1,2.2,2.7,3.9,4.7,5,2,1.2,4.3,1.7,7,1.7s3.3-.2,4.7-.7c1.4-.5,2.7-1.2,3.7-2.2,1-1,1.8-2.2,2.4-3.7l8.6,1.6c-.7,2.5-1.9,4.8-3.7,6.7-1.8,1.9-4,3.4-6.7,4.4-2.7,1-5.7,1.6-9.1,1.6Z"/>
    <path class="cls-2" d="M6028.7-1181.4v7.3h-25.6v-7.3h25.6ZM6010-1192.6h9.1v44.4c0,1.8.3,3.1.8,4,.5.9,1.2,1.5,2.1,1.8.8.3,1.8.5,2.8.5s1.4,0,1.9-.2c.5-.1,1-.2,1.3-.2l1.6,7.5c-.5.2-1.3.4-2.3.6s-2.2.3-3.7.4c-2.4,0-4.6-.4-6.7-1.3-2.1-.9-3.8-2.3-5-4.2-1.3-1.9-1.9-4.2-1.9-7.1v-46.3Z"/>
    <path class="cls-2" d="M6044.8-1133.9c-1.7,0-3.1-.6-4.3-1.8-1.2-1.2-1.8-2.6-1.8-4.3s.6-3.1,1.8-4.3c1.2-1.2,2.6-1.8,4.3-1.8s3.1.6,4.3,1.8c1.2,1.2,1.8,2.6,1.8,4.3s-.3,2.1-.8,3.1c-.6.9-1.3,1.7-2.2,2.2s-1.9.8-3.1.8Z"/>
    <path class="cls-2" d="M6069.1-1133.9c-1.7,0-3.1-.6-4.3-1.8-1.2-1.2-1.8-2.6-1.8-4.3s.6-3.1,1.8-4.3c1.2-1.2,2.6-1.8,4.3-1.8s3.1.6,4.3,1.8c1.2,1.2,1.8,2.6,1.8,4.3s-.3,2.1-.8,3.1c-.6.9-1.3,1.7-2.2,2.2s-1.9.8-3.1.8Z"/>
    <path class="cls-2" d="M6093.5-1133.9c-1.7,0-3.1-.6-4.3-1.8-1.2-1.2-1.8-2.6-1.8-4.3s.6-3.1,1.8-4.3c1.2-1.2,2.6-1.8,4.3-1.8s3.1.6,4.3,1.8c1.2,1.2,1.8,2.6,1.8,4.3s-.3,2.1-.8,3.1c-.6.9-1.3,1.7-2.2,2.2s-1.9.8-3.1.8Z"/>
    <path class="cls-2" d="M5691.5-1093.8v62.5h-8.7l-31.8-45.9h-.6v45.9h-9.4v-62.5h8.7l31.8,45.9h.6v-45.9h9.3Z"/>
    <path class="cls-2" d="M5724.3-1030.3c-4.4,0-8.2-1-11.5-3-3.3-2-5.8-4.8-7.6-8.5s-2.7-7.9-2.7-12.7.9-9.1,2.7-12.8c1.8-3.6,4.4-6.5,7.6-8.5,3.3-2,7.1-3,11.5-3s8.2,1,11.5,3,5.8,4.8,7.6,8.5c1.8,3.6,2.7,7.9,2.7,12.8s-.9,9.1-2.7,12.7-4.4,6.4-7.6,8.5-7.1,3-11.5,3ZM5724.3-1038c2.8,0,5.2-.8,7.1-2.3,1.9-1.5,3.3-3.5,4.2-6,.9-2.5,1.4-5.3,1.4-8.3s-.5-5.7-1.4-8.3c-.9-2.5-2.3-4.5-4.2-6.1-1.9-1.5-4.2-2.3-7.1-2.3s-5.2.8-7.1,2.3c-1.9,1.5-3.3,3.5-4.2,6.1-.9,2.5-1.4,5.3-1.4,8.3s.5,5.8,1.4,8.3c.9,2.5,2.3,4.5,4.2,6,1.9,1.5,4.3,2.3,7.1,2.3Z"/>
    <path class="cls-2" d="M5776-1012.7c-3.7,0-6.9-.5-9.6-1.5-2.7-1-4.9-2.3-6.6-3.9-1.7-1.6-3-3.4-3.8-5.3l7.8-3.2c.5.9,1.3,1.8,2.2,2.9.9,1,2.2,1.9,3.8,2.6,1.6.7,3.7,1.1,6.2,1.1s6.3-.8,8.6-2.5,3.4-4.4,3.4-8v-9.2h-.6c-.5,1-1.3,2.1-2.4,3.3s-2.4,2.3-4.2,3.2c-1.8.9-4.1,1.3-7,1.3s-7-.9-10-2.6c-3-1.7-5.3-4.3-7-7.7s-2.6-7.6-2.6-12.6.8-9.3,2.5-12.8c1.7-3.6,4-6.3,7-8.2,3-1.9,6.3-2.9,10.1-2.9s5.3.5,7.1,1.5c1.8,1,3.2,2.1,4.2,3.4,1,1.3,1.8,2.4,2.3,3.4h.7v-7.6h8.9v47.9c0,4-.9,7.3-2.8,9.9-1.9,2.6-4.4,4.5-7.6,5.7s-6.8,1.9-10.8,1.9ZM5775.9-1039.5c2.6,0,4.9-.6,6.7-1.8,1.8-1.2,3.2-3,4.2-5.3.9-2.3,1.4-5.1,1.4-8.3s-.5-5.9-1.4-8.3c-.9-2.4-2.3-4.3-4.1-5.6-1.8-1.4-4.1-2-6.7-2s-5,.7-6.9,2.1c-1.8,1.4-3.2,3.3-4.1,5.8-.9,2.4-1.4,5.1-1.4,8.1s.5,5.8,1.4,8.1,2.3,4.1,4.2,5.4,4.1,2,6.8,2Z"/>
    <path class="cls-2" d="M5841.3-1059.1v27.9h-9.1v-46.9h8.8v7.6h.6c1.1-2.5,2.8-4.5,5.1-6s5.2-2.3,8.8-2.3,6,.7,8.4,2c2.4,1.3,4.3,3.3,5.6,5.9,1.3,2.6,2,5.9,2,9.7v29.8h-9.1v-28.7c0-3.4-.9-6.1-2.7-8-1.8-1.9-4.2-2.9-7.3-2.9s-4,.5-5.6,1.4c-1.6.9-2.9,2.3-3.9,4-.9,1.8-1.4,3.9-1.4,6.4Z"/>
    <path class="cls-2" d="M5888.1-1085.4c-1.6,0-2.9-.5-4.1-1.6-1.1-1.1-1.7-2.3-1.7-3.8s.6-2.8,1.7-3.9c1.1-1.1,2.5-1.6,4.1-1.6s2.9.5,4.1,1.6c1.1,1.1,1.7,2.3,1.7,3.8s-.6,2.8-1.7,3.9c-1.1,1.1-2.5,1.6-4.1,1.6ZM5883.5-1031.3v-46.9h9.1v46.9h-9.1Z"/>
    <path class="cls-2" d="M5925.1-1030.3c-4.6,0-8.6-1-11.9-3-3.3-2-5.9-4.8-7.7-8.4-1.8-3.6-2.7-7.9-2.7-12.7s.9-9,2.7-12.7,4.3-6.5,7.6-8.6c3.2-2.1,7-3.1,11.4-3.1s5.2.4,7.7,1.3c2.5.9,4.7,2.2,6.7,4.1,2,1.9,3.5,4.3,4.7,7.3,1.1,3,1.7,6.6,1.7,10.9v3.2h-37.3v-6.8h28.3c0-2.4-.5-4.5-1.5-6.4-1-1.9-2.3-3.3-4.1-4.4-1.8-1.1-3.8-1.6-6.2-1.6s-4.8.6-6.7,1.9c-1.9,1.3-3.4,2.9-4.4,4.9-1,2-1.5,4.2-1.5,6.5v5.3c0,3.1.6,5.8,1.7,8,1.1,2.2,2.7,3.9,4.7,5,2,1.2,4.3,1.7,7,1.7s3.3-.2,4.7-.7c1.4-.5,2.7-1.2,3.7-2.2,1-1,1.8-2.2,2.4-3.7l8.6,1.6c-.7,2.5-1.9,4.8-3.7,6.7-1.8,1.9-4,3.4-6.7,4.4-2.7,1-5.7,1.6-9.1,1.6Z"/>
    <path class="cls-2" d="M5977.3-1078.2v7.3h-25.6v-7.3h25.6ZM5958.6-1089.4h9.1v44.4c0,1.8.3,3.1.8,4,.5.9,1.2,1.5,2.1,1.8.8.3,1.8.5,2.8.5s1.4,0,1.9-.2c.5-.1,1-.2,1.3-.2l1.6,7.5c-.5.2-1.3.4-2.3.6s-2.2.3-3.7.4c-2.4,0-4.6-.4-6.7-1.3-2.1-.9-3.8-2.3-5-4.2-1.3-1.9-1.9-4.2-1.9-7.1v-46.3Z"/>
    <path class="cls-2" d="M5993.4-1030.7c-1.7,0-3.1-.6-4.3-1.8-1.2-1.2-1.8-2.6-1.8-4.3s.6-3.1,1.8-4.3c1.2-1.2,2.6-1.8,4.3-1.8s3.1.6,4.3,1.8c1.2,1.2,1.8,2.6,1.8,4.3s-.3,2.1-.8,3.1c-.6.9-1.3,1.7-2.2,2.2s-1.9.8-3.1.8Z"/>
  </g>
  <g>
    <path class="cls-2" d="M5523.5-948.5v-23.3h8.5c1.7,0,3,.3,4.1.8,1.1.5,1.9,1.3,2.4,2.2.5.9.8,2,.8,3.1s-.2,1.8-.5,2.5-.8,1.2-1.4,1.6c-.6.4-1.3.7-2,.9v.2c.8,0,1.5.3,2.3.7.7.5,1.4,1.1,1.8,2s.7,1.9.7,3.1-.3,2.3-.8,3.2-1.4,1.7-2.6,2.2c-1.2.6-2.6.8-4.5.8h-8.9ZM5527-961.8h4.7c.8,0,1.5-.2,2.1-.5.6-.3,1.1-.7,1.5-1.3s.6-1.2.6-2-.3-1.8-1-2.4c-.7-.7-1.7-1-3.1-1h-4.8v7.1ZM5527-951.6h5.1c1.7,0,2.9-.3,3.6-1,.7-.7,1.1-1.5,1.1-2.4s-.2-1.4-.6-2-.9-1.1-1.6-1.5c-.7-.4-1.5-.5-2.4-.5h-5.2v7.5Z"/>
    <path class="cls-2" d="M5551.8-948.2c-1.7,0-3.2-.4-4.4-1.1-1.2-.7-2.2-1.8-2.9-3.1-.7-1.3-1-2.9-1-4.7s.3-3.4,1-4.7c.7-1.4,1.6-2.4,2.8-3.2,1.2-.8,2.6-1.2,4.3-1.2s1.9.2,2.9.5,1.8.8,2.5,1.5c.7.7,1.3,1.6,1.7,2.7.4,1.1.6,2.5.6,4.1v1.2h-13.9v-2.6h10.6c0-.9-.2-1.7-.5-2.4s-.9-1.2-1.5-1.6c-.7-.4-1.4-.6-2.3-.6s-1.8.2-2.5.7c-.7.5-1.3,1.1-1.6,1.8-.4.7-.6,1.6-.6,2.4v2c0,1.2.2,2.2.6,3s1,1.4,1.7,1.9c.7.4,1.6.6,2.6.6s1.2,0,1.8-.3c.5-.2,1-.5,1.4-.8.4-.4.7-.8.9-1.4l3.2.6c-.3,1-.7,1.8-1.4,2.5-.7.7-1.5,1.3-2.5,1.7-1,.4-2.1.6-3.4.6Z"/>
    <path class="cls-2" d="M5566.5-958.9v10.4h-3.4v-17.5h3.3v2.8h.2c.4-.9,1-1.7,1.9-2.2.9-.6,2-.8,3.3-.8s2.2.2,3.1.7c.9.5,1.6,1.2,2.1,2.2.5,1,.7,2.2.7,3.6v11.1h-3.4v-10.7c0-1.3-.3-2.3-1-3-.7-.7-1.6-1.1-2.7-1.1s-1.5.2-2.1.5c-.6.3-1.1.8-1.4,1.5-.4.7-.5,1.4-.5,2.4Z"/>
    <path class="cls-2" d="M5584-968.7c-.6,0-1.1-.2-1.5-.6-.4-.4-.6-.9-.6-1.4s.2-1,.6-1.4c.4-.4.9-.6,1.5-.6s1.1.2,1.5.6c.4.4.6.9.6,1.4s-.2,1-.6,1.4c-.4.4-.9.6-1.5.6ZM5582.2-948.5v-17.5h3.4v17.5h-3.4Z"/>
    <path class="cls-2" d="M5597.8-948.2c-1.7,0-3.2-.4-4.4-1.1-1.2-.7-2.2-1.8-2.9-3.1s-1-2.9-1-4.7.3-3.4,1-4.7,1.6-2.4,2.8-3.2c1.2-.8,2.6-1.2,4.3-1.2s1.9.2,2.9.5c.9.3,1.8.8,2.5,1.5.7.7,1.3,1.6,1.7,2.7.4,1.1.6,2.5.6,4.1v1.2h-13.9v-2.6h10.6c0-.9-.2-1.7-.5-2.4-.4-.7-.9-1.2-1.5-1.6s-1.4-.6-2.3-.6-1.8.2-2.5.7c-.7.5-1.3,1.1-1.6,1.8-.4.7-.6,1.6-.6,2.4v2c0,1.2.2,2.2.6,3s1,1.4,1.7,1.9c.7.4,1.6.6,2.6.6s1.2,0,1.8-.3c.5-.2,1-.5,1.4-.8.4-.4.7-.8.9-1.4l3.2.6c-.3,1-.7,1.8-1.4,2.5-.7.7-1.5,1.3-2.5,1.7-1,.4-2.1.6-3.4.6Z"/>
    <path class="cls-2" d="M5620.2-955.8v-10.2h3.4v17.5h-3.3v-3h-.2c-.4.9-1,1.7-1.9,2.3s-2,.9-3.3.9-2.1-.2-3-.7c-.9-.5-1.5-1.2-2-2.2-.5-1-.7-2.2-.7-3.6v-11.1h3.4v10.7c0,1.2.3,2.1,1,2.8.7.7,1.5,1.1,2.6,1.1s1.3-.2,1.9-.5c.6-.3,1.2-.8,1.6-1.4s.6-1.5.6-2.5Z"/>
    <path class="cls-2" d="M5631.9-948.5l-5.1-17.5h3.5l3.4,12.9h.2l3.4-12.9h3.5l3.4,12.8h.2l3.4-12.8h3.5l-5.1,17.5h-3.5l-3.6-12.6h-.3l-3.6,12.6h-3.5Z"/>
    <path class="cls-2" d="M5661.2-948.2c-1.4,0-2.7-.4-3.8-1.1-1.1-.7-2-1.8-2.6-3.1s-.9-3-.9-4.9.3-3.5,1-4.9c.6-1.3,1.5-2.4,2.6-3.1,1.1-.7,2.4-1.1,3.8-1.1s2,.2,2.6.5c.7.4,1.2.8,1.5,1.3s.7.9.9,1.3h.2v-8.7h3.4v23.3h-3.3v-2.7h-.3c-.2.4-.5.8-.9,1.3-.4.5-.9.9-1.6,1.3-.7.4-1.5.5-2.6.5ZM5661.9-951.1c1,0,1.8-.3,2.5-.8.7-.5,1.2-1.2,1.5-2.2.4-.9.5-2,.5-3.2s-.2-2.3-.5-3.2c-.3-.9-.9-1.6-1.5-2.1s-1.5-.8-2.5-.8-1.9.3-2.6.8c-.7.5-1.2,1.3-1.5,2.2s-.5,2-.5,3.1.2,2.2.5,3.2.9,1.7,1.6,2.2c.7.5,1.5.8,2.5.8Z"/>
    <path class="cls-2" d="M5687-948.5l-5.1-17.5h3.5l3.4,12.9h.2l3.4-12.9h3.5l3.4,12.8h.2l3.4-12.8h3.5l-5.1,17.5h-3.5l-3.6-12.6h-.3l-3.6,12.6h-3.5Z"/>
    <path class="cls-2" d="M5714.8-948.2c-1.1,0-2.1-.2-3-.6-.9-.4-1.6-1-2.1-1.8s-.8-1.8-.8-2.9.2-1.8.6-2.4c.4-.6.9-1.1,1.5-1.5.6-.4,1.4-.7,2.2-.8s1.6-.3,2.4-.4c1-.1,1.9-.2,2.6-.3.7,0,1.1-.2,1.4-.4.3-.2.4-.5.4-.9h0c0-1.1-.3-1.8-.8-2.4-.6-.5-1.4-.8-2.5-.8s-2,.3-2.7.8c-.7.5-1.1,1.1-1.4,1.7l-3.2-.7c.4-1.1.9-1.9,1.7-2.6.7-.7,1.6-1.1,2.5-1.4,1-.3,2-.5,3-.5s1.4,0,2.2.2c.8.2,1.5.5,2.2.9.7.4,1.3,1,1.7,1.9.4.8.7,1.8.7,3.1v11.6h-3.3v-2.4h-.1c-.2.4-.6.9-1,1.3-.4.4-1,.8-1.7,1.1-.7.3-1.5.4-2.5.4ZM5715.5-950.9c.9,0,1.7-.2,2.4-.6.7-.4,1.2-.9,1.5-1.5.4-.6.5-1.3.5-1.9v-2.3c-.1.1-.4.2-.7.3s-.7.2-1.2.3c-.4,0-.9.1-1.3.2s-.8.1-1,.1c-.7,0-1.3.2-1.8.4-.5.2-1,.5-1.3.8-.3.4-.5.9-.5,1.5s.3,1.5.9,1.9c.6.4,1.4.6,2.4.6Z"/>
    <path class="cls-2" d="M5736.1-966v2.7h-9.6v-2.7h9.6ZM5729.1-970.2h3.4v16.6c0,.7,0,1.2.3,1.5.2.3.5.6.8.7.3.1.7.2,1,.2s.5,0,.7,0c.2,0,.4,0,.5,0l.6,2.8c-.2,0-.5.2-.8.2-.4,0-.8.1-1.4.1-.9,0-1.7-.1-2.5-.5-.8-.3-1.4-.9-1.9-1.5-.5-.7-.7-1.6-.7-2.6v-17.3Z"/>
    <path class="cls-2" d="M5752.1-948.5l-5.1-17.5h3.5l3.4,12.9h.2l3.4-12.9h3.5l3.4,12.8h.2l3.4-12.8h3.5l-5.1,17.5h-3.5l-3.6-12.6h-.3l-3.6,12.6h-3.5Z"/>
    <path class="cls-2" d="M5782.4-948.2c-1.7,0-3.2-.4-4.4-1.1s-2.2-1.8-2.9-3.1c-.7-1.3-1-2.9-1-4.7s.3-3.4,1-4.7c.7-1.4,1.6-2.4,2.8-3.2,1.2-.8,2.6-1.2,4.3-1.2s1.9.2,2.9.5,1.8.8,2.5,1.5c.7.7,1.3,1.6,1.7,2.7.4,1.1.6,2.5.6,4.1v1.2h-13.9v-2.6h10.6c0-.9-.2-1.7-.5-2.4s-.9-1.2-1.5-1.6c-.7-.4-1.4-.6-2.3-.6s-1.8.2-2.5.7c-.7.5-1.3,1.1-1.6,1.8-.4.7-.6,1.6-.6,2.4v2c0,1.2.2,2.2.6,3s1,1.4,1.7,1.9c.7.4,1.6.6,2.6.6s1.2,0,1.8-.3c.5-.2,1-.5,1.4-.8.4-.4.7-.8.9-1.4l3.2.6c-.3,1-.7,1.8-1.4,2.5-.7.7-1.5,1.3-2.5,1.7-1,.4-2.1.6-3.4.6Z"/>
    <path class="cls-2" d="M5806-948.5l-5.1-17.5h3.5l3.4,12.9h.2l3.4-12.9h3.5l3.4,12.8h.2l3.4-12.8h3.5l-5.1,17.5h-3.5l-3.6-12.6h-.3l-3.6,12.6h-3.5Z"/>
    <path class="cls-2" d="M5836.2-948.2c-1.7,0-3.2-.4-4.4-1.1s-2.2-1.8-2.9-3.1-1-2.9-1-4.7.3-3.4,1-4.7,1.6-2.4,2.8-3.2c1.2-.8,2.6-1.2,4.3-1.2s1.9.2,2.9.5,1.8.8,2.5,1.5c.7.7,1.3,1.6,1.7,2.7.4,1.1.6,2.5.6,4.1v1.2h-13.9v-2.6h10.6c0-.9-.2-1.7-.5-2.4s-.9-1.2-1.5-1.6-1.4-.6-2.3-.6-1.8.2-2.5.7c-.7.5-1.3,1.1-1.6,1.8-.4.7-.6,1.6-.6,2.4v2c0,1.2.2,2.2.6,3s1,1.4,1.7,1.9c.7.4,1.6.6,2.6.6s1.2,0,1.8-.3c.5-.2,1-.5,1.4-.8.4-.4.7-.8.9-1.4l3.2.6c-.3,1-.7,1.8-1.4,2.5-.7.7-1.5,1.3-2.5,1.7-1,.4-2.1.6-3.4.6ZM5834.4-968.4l2.7-5.3h3.6l-3.5,5.3h-2.7Z"/>
    <path class="cls-2" d="M5850.9-971.9v23.3h-3.4v-23.3h3.4Z"/>
    <path class="cls-2" d="M5869.1-948.2c-1.1,0-2.1-.2-3-.6-.9-.4-1.6-1-2.1-1.8s-.8-1.8-.8-2.9.2-1.8.6-2.4c.4-.6.9-1.1,1.5-1.5.6-.4,1.4-.7,2.2-.8.8-.2,1.6-.3,2.4-.4,1-.1,1.9-.2,2.6-.3s1.1-.2,1.4-.4.4-.5.4-.9h0c0-1.1-.3-1.8-.8-2.4-.6-.5-1.4-.8-2.5-.8s-2,.3-2.7.8c-.7.5-1.1,1.1-1.4,1.7l-3.2-.7c.4-1.1.9-1.9,1.7-2.6.7-.7,1.6-1.1,2.5-1.4,1-.3,2-.5,3-.5s1.4,0,2.2.2c.8.2,1.5.5,2.2.9.7.4,1.3,1,1.7,1.9s.7,1.8.7,3.1v11.6h-3.3v-2.4h-.1c-.2.4-.6.9-1,1.3-.4.4-1,.8-1.7,1.1-.7.3-1.5.4-2.5.4ZM5869.8-950.9c.9,0,1.7-.2,2.4-.6.7-.4,1.2-.9,1.5-1.5.4-.6.5-1.3.5-1.9v-2.3c-.1.1-.4.2-.7.3s-.7.2-1.2.3c-.4,0-.9.1-1.3.2-.4,0-.8.1-1,.1-.7,0-1.3.2-1.8.4-.5.2-1,.5-1.3.8-.3.4-.5.9-.5,1.5s.3,1.5.9,1.9c.6.4,1.4.6,2.4.6Z"/>
    <path class="cls-2" d="M5893.3-955.8v-10.2h3.4v17.5h-3.3v-3h-.2c-.4.9-1,1.7-1.9,2.3-.9.6-2,.9-3.3.9s-2.1-.2-3-.7c-.9-.5-1.5-1.2-2-2.2-.5-1-.7-2.2-.7-3.6v-11.1h3.4v10.7c0,1.2.3,2.1,1,2.8.7.7,1.5,1.1,2.6,1.1s1.3-.2,1.9-.5,1.2-.8,1.6-1.4c.4-.6.6-1.5.6-2.5Z"/>
    <path class="cls-2" d="M5909.5-966v2.7h-9.6v-2.7h9.6ZM5902.5-970.2h3.4v16.6c0,.7,0,1.2.3,1.5.2.3.5.6.8.7.3.1.7.2,1,.2s.5,0,.7,0c.2,0,.4,0,.5,0l.6,2.8c-.2,0-.5.2-.8.2-.4,0-.8.1-1.4.1-.9,0-1.7-.1-2.5-.5-.8-.3-1.4-.9-1.9-1.5-.5-.7-.7-1.6-.7-2.6v-17.3Z"/>
    <path class="cls-2" d="M5920.6-948.2c-1.6,0-3.1-.4-4.3-1.1-1.2-.8-2.2-1.8-2.8-3.2-.7-1.4-1-2.9-1-4.7s.3-3.4,1-4.8,1.6-2.4,2.8-3.2c1.2-.8,2.7-1.1,4.3-1.1s3.1.4,4.3,1.1,2.2,1.8,2.8,3.2,1,2.9,1,4.8-.3,3.4-1,4.7c-.7,1.4-1.6,2.4-2.8,3.2s-2.7,1.1-4.3,1.1ZM5920.6-951c1.1,0,1.9-.3,2.6-.8.7-.6,1.2-1.3,1.6-2.2s.5-2,.5-3.1-.2-2.1-.5-3.1c-.3-.9-.9-1.7-1.6-2.3-.7-.6-1.6-.9-2.6-.9s-2,.3-2.7.9c-.7.6-1.2,1.3-1.6,2.3-.3.9-.5,2-.5,3.1s.2,2.2.5,3.1.9,1.7,1.6,2.2,1.6.8,2.7.8Z"/>
    <path class="cls-2" d="M5932.6-948.5v-17.5h3.3v2.8h.2c.4-1,1-1.7,1.8-2.3.8-.5,1.8-.8,3-.8s2.2.3,2.9.8c.8.5,1.4,1.3,1.8,2.3h.2c.4-.9,1.1-1.7,2-2.2s2-.8,3.3-.8,2.9.5,3.9,1.5,1.5,2.5,1.5,4.5v11.7h-3.4v-11.4c0-1.2-.3-2-1-2.6s-1.4-.8-2.3-.8-2,.3-2.6,1c-.6.7-.9,1.6-.9,2.6v11.2h-3.4v-11.6c0-1-.3-1.7-.9-2.3-.6-.6-1.4-.9-2.3-.9s-1.2.2-1.8.5c-.5.3-1,.8-1.3,1.4s-.5,1.3-.5,2.1v10.8h-3.4Z"/>
    <path class="cls-2" d="M5966-948.2c-1.1,0-2.1-.2-3-.6-.9-.4-1.6-1-2.1-1.8s-.8-1.8-.8-2.9.2-1.8.6-2.4c.4-.6.9-1.1,1.5-1.5.6-.4,1.4-.7,2.2-.8.8-.2,1.6-.3,2.4-.4,1-.1,1.9-.2,2.6-.3s1.1-.2,1.4-.4.4-.5.4-.9h0c0-1.1-.3-1.8-.8-2.4-.6-.5-1.4-.8-2.5-.8s-2,.3-2.7.8c-.7.5-1.1,1.1-1.4,1.7l-3.2-.7c.4-1.1.9-1.9,1.7-2.6.7-.7,1.6-1.1,2.5-1.4,1-.3,2-.5,3-.5s1.4,0,2.2.2c.8.2,1.5.5,2.2.9.7.4,1.3,1,1.7,1.9s.7,1.8.7,3.1v11.6h-3.3v-2.4h-.1c-.2.4-.6.9-1,1.3-.4.4-1,.8-1.7,1.1-.7.3-1.5.4-2.5.4ZM5966.7-950.9c.9,0,1.7-.2,2.4-.6.7-.4,1.2-.9,1.5-1.5.4-.6.5-1.3.5-1.9v-2.3c-.1.1-.4.2-.7.3s-.7.2-1.2.3c-.4,0-.9.1-1.3.2-.4,0-.8.1-1,.1-.7,0-1.3.2-1.8.4-.5.2-1,.5-1.3.8-.3.4-.5.9-.5,1.5s.3,1.5.9,1.9c.6.4,1.4.6,2.4.6Z"/>
    <path class="cls-2" d="M5987.3-966v2.7h-9.6v-2.7h9.6ZM5980.3-970.2h3.4v16.6c0,.7,0,1.2.3,1.5.2.3.5.6.8.7.3.1.7.2,1,.2s.5,0,.7,0c.2,0,.4,0,.5,0l.6,2.8c-.2,0-.5.2-.8.2-.4,0-.8.1-1.4.1-.9,0-1.7-.1-2.5-.5-.8-.3-1.4-.9-1.9-1.5-.5-.7-.7-1.6-.7-2.6v-17.3Z"/>
    <path class="cls-2" d="M5992.8-968.7c-.6,0-1.1-.2-1.5-.6-.4-.4-.6-.9-.6-1.4s.2-1,.6-1.4c.4-.4.9-.6,1.5-.6s1.1.2,1.5.6c.4.4.6.9.6,1.4s-.2,1-.6,1.4c-.4.4-.9.6-1.5.6ZM5991.1-948.5v-17.5h3.4v17.5h-3.4Z"/>
    <path class="cls-2" d="M6012.2-961.8l-3.1.5c-.1-.4-.3-.8-.6-1.1s-.7-.6-1.1-.9-1.1-.3-1.8-.3-1.8.2-2.4.6c-.6.4-1,1-1,1.7s.2,1.1.6,1.4,1.1.6,2.1.9l2.8.6c1.6.4,2.8.9,3.6,1.7.8.8,1.2,1.8,1.2,3s-.3,2-.9,2.8c-.6.8-1.4,1.5-2.5,1.9-1.1.5-2.3.7-3.7.7s-3.6-.4-4.8-1.3c-1.2-.8-2-2-2.3-3.6l3.3-.5c.2.9.6,1.5,1.3,1.9.6.4,1.5.7,2.5.7s2-.2,2.7-.7c.7-.5,1-1,1-1.7s-.2-1-.6-1.4c-.4-.4-1-.7-1.9-.8l-3-.6c-1.6-.4-2.8-1-3.6-1.8-.8-.8-1.2-1.8-1.2-3.1s.3-1.9.9-2.7c.6-.8,1.4-1.4,2.4-1.8,1-.4,2.2-.7,3.5-.7,1.9,0,3.4.4,4.5,1.2,1.1.8,1.8,1.9,2.2,3.3Z"/>
    <path class="cls-2" d="M6023.8-948.2c-1.7,0-3.2-.4-4.4-1.1s-2.2-1.8-2.9-3.1-1-2.9-1-4.7.3-3.4,1-4.7,1.6-2.4,2.8-3.2c1.2-.8,2.6-1.2,4.3-1.2s1.9.2,2.9.5,1.8.8,2.5,1.5c.7.7,1.3,1.6,1.7,2.7.4,1.1.6,2.5.6,4.1v1.2h-13.9v-2.6h10.6c0-.9-.2-1.7-.5-2.4s-.9-1.2-1.5-1.6-1.4-.6-2.3-.6-1.8.2-2.5.7c-.7.5-1.3,1.1-1.6,1.8-.4.7-.6,1.6-.6,2.4v2c0,1.2.2,2.2.6,3s1,1.4,1.7,1.9c.7.4,1.6.6,2.6.6s1.2,0,1.8-.3c.5-.2,1-.5,1.4-.8.4-.4.7-.8.9-1.4l3.2.6c-.3,1-.7,1.8-1.4,2.5-.7.7-1.5,1.3-2.5,1.7-1,.4-2.1.6-3.4.6Z"/>
    <path class="cls-2" d="M6035.1-948.5v-17.5h3.3v2.8h.2c.3-.9.9-1.7,1.7-2.2s1.7-.8,2.8-.8.5,0,.8,0c.3,0,.5,0,.7,0v3.3c-.1,0-.4,0-.7-.1s-.7,0-1,0c-.8,0-1.5.2-2.1.5s-1.1.8-1.5,1.4c-.4.6-.5,1.3-.5,2v10.7h-3.4Z"/>
    <path class="cls-2" d="M6055-948.2c-1.7,0-3.2-.4-4.4-1.1s-2.2-1.8-2.9-3.1-1-2.9-1-4.7.3-3.4,1-4.7,1.6-2.4,2.8-3.2c1.2-.8,2.6-1.2,4.3-1.2s1.9.2,2.9.5,1.8.8,2.5,1.5c.7.7,1.3,1.6,1.7,2.7.4,1.1.6,2.5.6,4.1v1.2h-13.9v-2.6h10.6c0-.9-.2-1.7-.5-2.4s-.9-1.2-1.5-1.6-1.4-.6-2.3-.6-1.8.2-2.5.7c-.7.5-1.3,1.1-1.6,1.8-.4.7-.6,1.6-.6,2.4v2c0,1.2.2,2.2.6,3s1,1.4,1.7,1.9c.7.4,1.6.6,2.6.6s1.2,0,1.8-.3c.5-.2,1-.5,1.4-.8.4-.4.7-.8.9-1.4l3.2.6c-.3,1-.7,1.8-1.4,2.5-.7.7-1.5,1.3-2.5,1.7-1,.4-2.1.6-3.4.6Z"/>
    <path class="cls-2" d="M6069.7-958.9v10.4h-3.4v-17.5h3.3v2.8h.2c.4-.9,1-1.7,1.9-2.2.9-.6,2-.8,3.3-.8s2.2.2,3.1.7c.9.5,1.6,1.2,2.1,2.2.5,1,.7,2.2.7,3.6v11.1h-3.4v-10.7c0-1.3-.3-2.3-1-3-.7-.7-1.6-1.1-2.7-1.1s-1.5.2-2.1.5c-.6.3-1.1.8-1.4,1.5-.4.7-.5,1.4-.5,2.4Z"/>
    <path class="cls-2" d="M6089.2-955.2v-.2c0-1.4.2-2.5.4-3.4s.7-1.5,1.2-2c.5-.5,1.1-1,1.8-1.4.5-.3.9-.6,1.2-1s.7-.8.9-1.2.3-1,.3-1.5-.2-1.3-.5-1.8c-.3-.5-.7-.9-1.3-1.1s-1.1-.4-1.8-.4-1.1.1-1.7.4c-.5.2-1,.6-1.3,1.1-.3.5-.6,1.2-.6,2h-3.5c0-1.4.4-2.5,1-3.5.6-.9,1.5-1.7,2.5-2.1,1.1-.5,2.2-.7,3.5-.7s2.6.3,3.7.8c1,.5,1.9,1.2,2.4,2.2.6.9.9,2,.9,3.3s-.1,1.6-.4,2.3c-.3.7-.6,1.3-1.1,1.8-.5.5-1.1,1-1.8,1.4-.6.4-1.2.8-1.6,1.3-.4.4-.7.9-.9,1.5-.2.6-.3,1.3-.3,2.2v.2h-3.3ZM6090.9-948.3c-.6,0-1.2-.2-1.6-.7-.4-.4-.7-1-.7-1.6s.2-1.2.7-1.6c.4-.4,1-.7,1.6-.7s1.1.2,1.6.7.7,1,.7,1.6-.1.8-.3,1.1c-.2.3-.5.6-.8.8-.3.2-.7.3-1.1.3Z"/>
    <path class="cls-2" d="M5760.7-933.4v23.3h-4.9v-23.3h4.9Z"/>
    <path class="cls-2" d="M5767-929.8c-.7,0-1.3-.2-1.9-.7-.5-.5-.8-1.1-.8-1.7s.3-1.3.8-1.7c.5-.5,1.1-.7,1.8-.7s1.3.2,1.9.7c.5.5.8,1.1.8,1.7s-.3,1.3-.8,1.7c-.5.5-1.1.7-1.9.7ZM5764.6-910v-17.5h4.9v17.5h-4.9Z"/>
    <path class="cls-2" d="M5778.2-920.2v10.1h-4.9v-17.5h4.6v3.1h.2c.4-1,1-1.8,1.9-2.4.9-.6,2-.9,3.3-.9s2.3.3,3.2.8,1.6,1.3,2.1,2.3.8,2.2.8,3.5v11.1h-4.9v-10.3c0-1.1-.3-1.9-.8-2.5-.6-.6-1.3-.9-2.3-.9s-1.2.1-1.7.4c-.5.3-.9.7-1.2,1.2-.3.5-.4,1.2-.4,1.9Z"/>
    <path class="cls-2" d="M5793.3-910v-23.3h4.9v23.3h-4.9ZM5797.7-915.1v-5.8h.7l5.6-6.6h5.6l-7.5,8.8h-1.2l-3.2,3.7ZM5804.2-910l-5.1-7.6,3.2-3.4,7.6,11.1h-5.7Z"/>
    <path class="cls-2" d="M5816.9-909.7c-1.1,0-2.1-.2-3-.6-.9-.4-1.6-1-2.1-1.7-.5-.8-.8-1.7-.8-2.9s.2-1.8.5-2.4c.4-.7.8-1.2,1.5-1.6.6-.4,1.3-.7,2.1-.9.8-.2,1.6-.3,2.5-.4,1-.1,1.8-.2,2.5-.3s1.1-.2,1.4-.4c.3-.2.4-.5.4-.8h0c0-.8-.2-1.3-.7-1.7-.5-.4-1.1-.6-1.9-.6s-1.6.2-2.1.6-.9.9-1,1.4l-4.5-.4c.2-1.1.7-2,1.3-2.8.7-.8,1.5-1.4,2.6-1.8,1.1-.4,2.3-.6,3.7-.6s1.9.1,2.8.3c.9.2,1.7.6,2.4,1.1.7.5,1.2,1.1,1.6,1.8.4.7.6,1.6.6,2.7v11.8h-4.6v-2.4h-.1c-.3.5-.7,1-1.1,1.4-.5.4-1,.7-1.7,1s-1.4.3-2.3.3ZM5818.3-913.1c.7,0,1.3-.1,1.9-.4.5-.3,1-.7,1.3-1.2.3-.5.5-1,.5-1.7v-1.9c-.2,0-.4.2-.6.3s-.6.2-.9.2c-.3,0-.7.1-1,.2s-.6,0-.9.1c-.6,0-1.1.2-1.5.4-.4.2-.8.4-1,.7s-.4.7-.4,1.1c0,.7.2,1.2.7,1.5.5.3,1.1.5,1.8.5Z"/>
    <path class="cls-2" d="M5833-929.8c-.7,0-1.3-.2-1.9-.7-.5-.5-.8-1.1-.8-1.7s.3-1.3.8-1.7c.5-.5,1.1-.7,1.8-.7s1.3.2,1.9.7c.5.5.8,1.1.8,1.7s-.3,1.3-.8,1.7c-.5.5-1.1.7-1.9.7ZM5830.5-910v-17.5h4.9v17.5h-4.9Z"/>
    <path class="cls-2" d="M5842.1-909.7c-.8,0-1.4-.3-1.9-.8-.5-.5-.8-1.2-.8-1.9s.3-1.4.8-1.9c.5-.5,1.2-.8,1.9-.8s1.4.3,1.9.8c.5.5.8,1.2.8,1.9s-.1,1-.4,1.4c-.3.4-.6.7-1,1-.4.2-.9.4-1.4.4Z"/>
    <path class="cls-2" d="M5853.7-920.2v10.1h-4.9v-17.5h4.6v3.1h.2c.4-1,1-1.8,1.9-2.4.9-.6,2-.9,3.3-.9s2.3.3,3.2.8c.9.5,1.6,1.3,2.1,2.3s.8,2.2.8,3.5v11.1h-4.9v-10.3c0-1.1-.3-1.9-.8-2.5-.6-.6-1.3-.9-2.3-.9s-1.2.1-1.7.4c-.5.3-.9.7-1.2,1.2-.3.5-.4,1.2-.4,1.9Z"/>
    <path class="cls-2" d="M5873.6-933.4v23.3h-4.9v-23.3h4.9Z"/>
  </g>
</svg>